<svg xmlns="http://www.w3.org/2000/svg" version="1.1" xmlns:xlink="http://www.w3.org/1999/xlink" xmlns:svgjs="http://svgjs.com/svgjs" width="512" height="512" x="0" y="0" viewBox="0 0 512 512" style="enable-background:new 0 0 512 512" xml:space="preserve" class=""><g><path d="M246.577 42.604a8.58 8.58 0 0 1-8.581 8.58 8.58 8.58 0 0 1-8.58-8.58 8.58 8.58 0 1 1 17.161 0zm83.103 287.802h-90.95a8 8 0 0 0 0 16h90.95a8 8 0 0 0 0-16zm0-81.268H146.315a8 8 0 0 0 0 16H329.68a8 8 0 0 0 0-16zm0-40.633H146.315a8 8 0 0 0 0 16H329.68a8 8 0 0 0 0-16zm0-40.633H146.315a8 8 0 0 0 0 16H329.68a8 8 0 0 0 0-16zm-191.365-32.634a8 8 0 0 0 8 8H329.68a8 8 0 0 0 0-16H146.315a8 8 0 0 0-8 8zm342.656 285.684c0 45.683-37.166 82.849-82.849 82.849-35.602 0-66.026-22.576-77.722-54.161h-87.944a23.71 23.71 0 0 1-11.16 14.667 23.48 23.48 0 0 1 2.585 10.738c0 13.023-10.596 23.619-23.62 23.619h-25.215c-1.758 0-3.47-.199-5.119-.565l-3.397.588c-16.557 2.871-30.749 5.332-43.588 5.332-16.669 0-31.063-4.151-45.424-16.928h-38.49a8 8 0 0 1-8-8V371.093a8 8 0 0 1 8-8H63.99V71.431c0-14.933 12.148-27.081 27.081-27.081h65.463v-3.533a8 8 0 0 1 8-8h36.151c6.192-14.875 20.742-24.806 37.312-24.806s31.12 9.931 37.312 24.806h36.151a8 8 0 0 1 8 8v3.533h65.463c14.933 0 27.082 12.148 27.082 27.081V339.26c39.093 6.626 68.966 40.712 68.966 81.662zM319.46 60.35v10.545h58a8 8 0 0 1 8 8v260.146c3.448-.531 6.971-.823 10.544-.914V71.431c0-6.11-4.971-11.081-11.082-11.081zM172.534 82.428H303.46V48.817h-33.931a7.999 7.999 0 0 1-7.777-6.125c-2.653-10.999-12.421-18.681-23.755-18.681s-21.103 7.682-23.756 18.682a7.999 7.999 0 0 1-7.777 6.124h-33.931v33.611zm-8 16a8 8 0 0 1-8-8v-3.533h-50v253.716c5.886-6.494 9.749-13.946 9.749-23.499v-32.776a8 8 0 0 1 8-8c12.818 0 24.454 5.131 32.983 13.437H329.68a8 8 0 0 1 0 16h-161.6a47.04 47.04 0 0 1 3.516 17.871v25.425c0 .365-.025.73-.075 1.093-.37 2.683-1.156 5.46-2.266 8.232a23.661 23.661 0 0 1 5.79-.716h38.915c13.024 0 23.62 10.596 23.62 23.619a23.47 23.47 0 0 1-3.303 12.036 23.684 23.684 0 0 1 9.237 13.733h72.942c4.989-29.491 25.597-53.736 53.005-63.875V86.895h-50v3.533a8 8 0 0 1-8 8zm49.425 290.488c4.202 0 7.62-3.418 7.62-7.62 0-4.201-3.418-7.619-7.62-7.619H175.045c-2.018 0-3.926.797-5.374 2.244s-2.245 3.356-2.245 5.375c0 4.202 3.418 7.62 7.62 7.62zM79.99 71.431v290.226a674.348 674.348 0 0 1 5.091-3.618 647.627 647.627 0 0 0 5.454-3.875V78.895a8 8 0 0 1 8-8h58V60.35H91.071c-6.111 0-11.081 4.971-11.081 11.081zm-7.336 307.662H47.029v91.968h25.655c.015-11.306.015-37.222-.03-91.968zm80.841 105.566a23.47 23.47 0 0 1-2.067-9.644 23.416 23.416 0 0 1 5.921-15.615 23.527 23.527 0 0 1-5.921-15.626c0-4.392 1.206-8.508 3.303-12.034a23.763 23.763 0 0 1-7.595-9.087 85.48 85.48 0 0 1-9.694 6.479 7.995 7.995 0 0 1-10.921-2.954 8 8 0 0 1 2.953-10.922c5.522-3.171 18.649-11.789 21.275-23.29 1.333-5.839-.189-11.846-4.654-18.365a8 8 0 0 1 .941-10.175c5.008-5.012 7.863-11.024 8.561-14.976v-24.808c0-7.678-2.78-14.719-7.386-20.172a7.981 7.981 0 0 1-.713-.812c-4.011-4.432-9.267-7.717-15.214-9.289v23.741c0 27.228-20.18 41.453-37.984 54.005a586.33 586.33 0 0 0-5.649 4.019c.028 33.955.042 59.612.042 76.923 0 9.003-.003 15.757-.011 20.26l-.007 3.238c17.571 15.299 34.816 14.129 64.82 9.104zm21.579-17.264v-.001l-.027.001c-2.019 0-3.927.797-5.375 2.245a7.558 7.558 0 0 0-2.245 5.375c0 4.201 3.418 7.619 7.619 7.619h25.215c4.202 0 7.62-3.418 7.62-7.619 0-4.202-3.418-7.62-7.62-7.62h-.007zm34.505-16c4.201 0 7.62-3.419 7.62-7.621 0-4.201-3.418-7.619-7.62-7.619h-34.531c-4.202 0-7.62 3.418-7.62 7.619 0 4.202 3.417 7.62 7.618 7.621zm10.961-31.24c4.202 0 7.62-3.418 7.62-7.619s-3.418-7.62-7.62-7.62h-52.072c-4.202 0-7.621 3.418-7.621 7.62 0 4.201 3.418 7.619 7.621 7.619zm95.706 13.455c-.532-3.448-.826-6.972-.917-10.545h-73.664a23.768 23.768 0 0 1-10.481 10.545zm148.725-12.688c0-36.86-29.988-66.849-66.849-66.849-36.86 0-66.848 29.988-66.848 66.849s29.988 66.849 66.848 66.849c36.861 0 66.849-29.988 66.849-66.849zm-42.098-24.64-35.604 32.311-13.616-13.616a8 8 0 0 0-11.313 11.314l19.005 19.005a7.98 7.98 0 0 0 5.658 2.343 7.97 7.97 0 0 0 5.375-2.076l41.248-37.433a7.999 7.999 0 0 0 .548-11.3 7.997 7.997 0 0 0-11.301-.548z" fill="#DDB039" data-original="#000000" opacity="1" class=""></path></g></svg>