<svg xmlns="http://www.w3.org/2000/svg" version="1.1" xmlns:xlink="http://www.w3.org/1999/xlink" xmlns:svgjs="http://svgjs.com/svgjs" width="512" height="512" x="0" y="0" viewBox="0 0 512 512" style="enable-background:new 0 0 512 512" xml:space="preserve" class=""><g><path d="M364.969 0H147.031a26.8 26.8 0 0 0-26.769 26.77v458.46A26.8 26.8 0 0 0 147.031 512h217.938a26.8 26.8 0 0 0 26.769-26.77V26.77A26.8 26.8 0 0 0 364.969 0zM198.955 16h114.09v10.721a5.686 5.686 0 0 1-5.68 5.679H204.634a5.685 5.685 0 0 1-5.679-5.679zm176.783 469.23A10.781 10.781 0 0 1 364.969 496H147.031a10.781 10.781 0 0 1-10.769-10.77V26.77A10.781 10.781 0 0 1 147.031 16h35.924v10.721A21.7 21.7 0 0 0 204.634 48.4h102.731a21.7 21.7 0 0 0 21.68-21.679V16h35.924a10.781 10.781 0 0 1 10.769 10.77zm-117.946-55.88a27.2 27.2 0 1 0 27.2 27.2 27.231 27.231 0 0 0-27.2-27.2zm0 38.4a11.2 11.2 0 1 1 11.2-11.2 11.212 11.212 0 0 1-11.2 11.2zM256 169a87 87 0 1 0 87 87 87.1 87.1 0 0 0-87-87zm0 158a71 71 0 1 1 71-71 71.08 71.08 0 0 1-71 71zm34.265-76.594a8 8 0 0 1 0 11.315l-28.608 28.608a8 8 0 0 1-11.314 0l-28.608-28.609a8 8 0 1 1 11.313-11.315L248 265.357v-58.233a8 8 0 0 1 16 0v58.233l14.952-14.952a8 8 0 0 1 11.313 0zm-6.545 54.47a8 8 0 0 1-8 8h-39.441a8 8 0 0 1 0-16h39.441a8 8 0 0 1 8 7.999z" fill="#15A600" data-original="#000000" opacity="1" class=""></path></g></svg>