<svg xmlns="http://www.w3.org/2000/svg" version="1.1" xmlns:xlink="http://www.w3.org/1999/xlink" xmlns:svgjs="http://svgjs.com/svgjs" width="512" height="512" x="0" y="0" viewBox="0 0 512 512" style="enable-background:new 0 0 512 512" xml:space="preserve" class=""><g><path d="M349.558 432.474c-1.228-15.961-5.143-23.149-16.113-29.581-8.065-4.729-21.76-8.225-33.842-11.309-3.948-1.008-7.672-1.962-10.929-2.886-4.275-2.481-7.177-6.222-8.661-11.153 12.105-9.846 19.248-25.907 21.224-41.022 5.017-11.634 5.498-30.734 3.562-38.564-1.796-7.266-5.767-12.772-11.18-15.502-2.875-1.451-5.985-2.043-8.963-1.765-9.323-12.823-23.711-9.406-37.661-6.092-9.995 2.375-21.326 5.066-33.215 3.231a5.003 5.003 0 0 0-5.537 3.456c-5.685 18.268-6.151 44.226 2.612 55.924 2.1 14.913 9.21 30.639 21.131 40.336-1.484 4.93-4.386 8.672-8.662 11.153-3.258.924-6.981 1.878-10.929 2.886-12.083 3.084-25.777 6.58-33.842 11.309-10.97 6.432-14.885 13.62-16.112 29.581l-.007.108c-1.138 20.662-1.195 41.821-.186 68.606a5.002 5.002 0 0 0 4.997 4.812h177.509a5 5 0 0 0 4.997-4.812c1.009-26.787.952-47.946-.186-68.606a3.913 3.913 0 0 0-.007-.108zM216.67 288.232c12.053.985 22.923-1.596 32.637-3.905 15.639-3.715 23.391-5.079 28.65 4.445a5 5 0 0 0 6.296 2.2c1.39-.579 3.208-.424 4.862.411 2.768 1.396 4.891 4.584 5.976 8.975 1.118 4.522 1.086 14.082-.362 22.494-1.011-2.237-2.061-4.546-3.547-6.799-2.405-3.644-5.658-4.822-9.085-4.822-3.642 0-7.481 1.332-10.706 2.451-10.3 3.575-20.92 1.155-30.288-.981-6.169-1.406-11.494-2.621-15.965-1.817-5.103.917-8.276 4.38-10.348 8.57-1.33-8.63-.95-20.093 1.878-31.222zm4.014 47.05.075-.407c.858-4.713 2.454-13.485 6.15-14.15 2.459-.441 7.083.61 11.973 1.725 9.614 2.192 22.781 5.192 35.789.678 4.557-1.58 7.236-2.192 7.964-1.814 0 0 .075.053.202.247 1.067 1.617 1.919 3.501 2.82 5.497 1.355 3 2.877 6.334 5.461 9.623-2.906 18.759-14.839 38.718-35.119 40.234-20.784-1.554-32.798-22.48-35.315-41.633zm34.992 51.634a5.009 5.009 0 0 0 .648 0c5.499-.357 10.503-1.737 15.023-3.886 1.785 4.501 4.485 8.341 8.065 11.365-6.542 7.044-14.706 10.866-23.412 10.866s-16.871-3.822-23.413-10.867c3.58-3.024 6.281-6.864 8.066-11.365 4.52 2.149 9.524 3.529 15.022 3.886zm-83.259 46.271c1.047-13.532 3.718-17.283 11.195-21.667 6.848-4.015 19.816-7.325 31.258-10.246 2.99-.763 5.851-1.496 8.521-2.218 7.521 9.054 17.103 14.569 27.609 15.893V496h-43.815v-42.085a5 5 0 0 0-10 0V496H172.07c-.814-24.189-.702-43.739.346-62.813zM339.93 496h-25.27v-42.085a5 5 0 0 0-10 0V496h-43.659v-81.051c10.505-1.325 20.087-6.84 27.608-15.893 2.67.722 5.532 1.454 8.522 2.218 11.441 2.921 24.41 6.231 31.258 10.246 7.478 4.384 10.148 8.134 11.196 21.666 1.048 19.075 1.16 38.622.346 62.815zm-83.929-307.742c50.249 0 91.129-40.88 91.129-91.129S306.25 6 256.001 6s-91.129 40.88-91.129 91.129 40.88 91.129 91.129 91.129zm0-172.259c44.735 0 81.129 36.395 81.129 81.129s-36.395 81.129-81.129 81.129-81.129-36.395-81.129-81.129S211.266 16 256.001 16zm0 154.848c40.648 0 73.718-33.07 73.718-73.719s-33.07-73.718-73.718-73.718-73.718 33.07-73.718 73.718 33.07 73.719 73.718 73.719zm0-137.437c35.134 0 63.718 28.584 63.718 63.718s-28.584 63.719-63.718 63.719-63.718-28.584-63.718-63.719 28.584-63.718 63.718-63.718zm-15.246 81.579a4.996 4.996 0 0 0-5.844-3.98 5 5 0 0 0-3.98 5.844c2.069 10.908 10.87 16.94 20.07 18.778v8.497a5 5 0 0 0 10 0v-8.101c9.948-1.162 17.539-6.874 19.492-15.086 1.669-7.019 1.58-19.804-17.766-26.562-.562-.196-1.146-.376-1.726-.559V68.591c2.658.654 8.922 2.872 10.132 9.41a5 5 0 0 0 9.833-1.819c-1.578-8.526-8.159-14.996-17.605-17.309a30.187 30.187 0 0 0-2.36-.468V50.13a5 5 0 0 0-10 0v8.328c-6.054 1.048-11.472 3.921-14.849 8.244-6.598 8.446-5.676 20.439 2.145 27.896 3.548 3.383 8.188 5.233 12.704 6.654v24.112c-4.749-1.407-9.149-4.596-10.246-10.374zm30.009 3.638c-.98 4.12-5.208 6.442-9.763 7.272v-21.49c11.998 4.78 10.388 11.589 9.763 14.218zM245.198 87.36c-4.701-4.482-4.145-10.689-1.165-14.503 1.559-1.997 4.056-3.442 6.968-4.217v22.033c-2.294-.88-4.344-1.922-5.803-3.313zm256.771 92.747-12.279-2.421-4.494-10.833 6.975-10.4a4.999 4.999 0 0 0-.617-6.32l-17.453-17.453a4.999 4.999 0 0 0-6.32-.617l-10.4 6.975-10.833-4.494-2.421-12.279a5 5 0 0 0-4.905-4.033H414.54a4.999 4.999 0 0 0-4.905 4.033l-2.421 12.279-10.833 4.494-10.4-6.975a4.997 4.997 0 0 0-6.32.617l-17.453 17.453a5 5 0 0 0-.617 6.32l6.975 10.4-4.494 10.833-12.279 2.421a5 5 0 0 0-4.033 4.905v24.682a4.999 4.999 0 0 0 4.033 4.905l12.279 2.421 4.494 10.833-6.975 10.4a5 5 0 0 0 .617 6.32l17.453 17.453a5.002 5.002 0 0 0 6.32.617l10.4-6.975 10.833 4.494 2.421 12.279a5 5 0 0 0 4.905 4.033h24.682a4.999 4.999 0 0 0 4.905-4.033l2.421-12.279 10.833-4.494 10.4 6.975a5.003 5.003 0 0 0 6.32-.617l17.453-17.453a5 5 0 0 0 .617-6.32l-6.975-10.4 4.494-10.833 12.279-2.421a5 5 0 0 0 4.033-4.905v-24.682a4.999 4.999 0 0 0-4.033-4.905zm-5.967 25.477-10.872 2.144a5 5 0 0 0-3.651 2.989l-6.546 15.78a4.997 4.997 0 0 0 .466 4.701l6.178 9.212-11.64 11.64-9.212-6.178a4.997 4.997 0 0 0-4.701-.466l-15.78 6.546a5 5 0 0 0-2.989 3.651l-2.144 10.872H418.65l-2.144-10.872a5 5 0 0 0-2.989-3.651l-15.78-6.546a4.996 4.996 0 0 0-4.701.466l-9.212 6.178-11.64-11.64 6.178-9.212a5 5 0 0 0 .466-4.701l-6.546-15.78a5 5 0 0 0-3.651-2.989l-10.872-2.144v-16.461l10.872-2.144a5 5 0 0 0 3.651-2.989l6.546-15.78a4.997 4.997 0 0 0-.466-4.701l-6.178-9.212 11.64-11.64 9.212 6.178a5.002 5.002 0 0 0 4.701.466l15.78-6.546a5 5 0 0 0 2.989-3.651l2.144-10.872h16.461l2.144 10.872a5 5 0 0 0 2.989 3.651l15.78 6.546a4.997 4.997 0 0 0 4.701-.466l9.212-6.178 11.64 11.64-6.178 9.212a5 5 0 0 0-.466 4.701l6.546 15.78a5 5 0 0 0 3.651 2.989l10.872 2.144zm-69.122-51.243c-23.717 0-43.012 19.295-43.012 43.012s19.295 43.012 43.012 43.012 43.012-19.295 43.012-43.012-19.295-43.012-43.012-43.012zm0 76.024c-18.203 0-33.012-14.809-33.012-33.012s14.809-33.012 33.012-33.012 33.012 14.809 33.012 33.012-14.809 33.012-33.012 33.012zm-303.856-90.442c-12.586-10.022-29.45-15.542-47.485-15.542s-34.898 5.52-47.485 15.542C13.626 151.412 6 167.758 6 187.196c0 24.161 10.016 38.134 18.853 50.462 7.2 10.043 13.417 18.717 13.417 31.587v6.027c0 8.564 6.619 15.6 15.008 16.29v1.383c0 7.55 6.143 13.692 13.693 13.692h17.136c7.55 0 13.692-6.143 13.692-13.692v-1.383c8.389-.69 15.009-7.725 15.009-16.29v-6.027c0-12.87 6.217-21.544 13.417-31.587 8.837-12.329 18.853-26.302 18.853-50.462 0-19.438-7.626-35.785-22.054-47.273zM84.107 296.639H66.971a3.697 3.697 0 0 1-3.693-3.692v-1.315h24.521v1.315a3.696 3.696 0 0 1-3.692 3.692zm12.343-15.007H54.627a6.365 6.365 0 0 1-6.357-6.358v-1.027h54.538v1.027a6.365 6.365 0 0 1-6.358 6.358zm21.647-49.799c-6.708 9.359-13.604 19.014-15.013 32.414H80.539v-28.795c0-.313 0-.625.003-.932 4.498-1.339 10.121-5.252 14.258-15.669 3.667-9.23 3.327-17.221-.909-21.375-2.572-2.523-6.165-3.167-9.607-1.72-6.772 2.843-11.396 12.637-13.061 27.03-3.714-3.276-7.246-9.78-8.598-18.461a5 5 0 1 0-9.88 1.538c2.155 13.844 9.193 24.69 17.802 28.139-.005.479-.008.963-.008 1.45v28.795H47.994c-1.409-13.4-8.305-23.054-15.014-32.414C24.632 220.187 16 208.144 16 187.197c0-36.288 30.863-52.816 59.539-52.816s59.539 16.528 59.539 52.816c0 20.947-8.632 32.99-16.98 44.636zm-36.769-9.406c1.372-10.222 4.209-15.04 5.876-16.739.26 1.558.207 4.678-1.697 9.471-1.239 3.119-2.662 5.573-4.179 7.268zM251 256.617v-40.469l-2.276 3.076a5 5 0 0 1-8.038-5.948l11.295-15.264a5 5 0 0 1 8.038 0l11.295 15.264a4.999 4.999 0 0 1-4.015 7.974 4.994 4.994 0 0 1-4.023-2.026L261 216.148v40.469a5 5 0 0 1-10 0zm-99.157 32.116a5 5 0 0 1-9.889 1.478l-2.806-18.78a4.999 4.999 0 0 1 5.683-5.683l18.78 2.806a5 5 0 0 1-1.478 9.89l-3.785-.565 28.616 28.616a5 5 0 1 1-7.072 7.071l-28.616-28.616.565 3.785zm219.6-21.577a4.997 4.997 0 0 1 1.409 4.274l-2.806 18.78a5.002 5.002 0 0 1-5.683 4.206 5 5 0 0 1-4.206-5.684l.565-3.784-28.616 28.615c-.977.976-2.256 1.464-3.536 1.464s-2.559-.488-3.536-1.464a5 5 0 0 1 0-7.071l28.616-28.616-3.785.566a5 5 0 0 1-1.478-9.89l18.78-2.806a4.996 4.996 0 0 1 4.274 1.409z" fill="#3E8CAB" data-original="#000000" opacity="1" class=""></path></g></svg>