<svg xmlns="http://www.w3.org/2000/svg" version="1.1" xmlns:xlink="http://www.w3.org/1999/xlink" xmlns:svgjs="http://svgjs.com/svgjs" width="512" height="512" x="0" y="0" viewBox="0 0 32 32" style="enable-background:new 0 0 512 512" xml:space="preserve"><g><path d="M13.496 11.548a1.004 1.004 0 0 0 1.004.003L26.584 4.5A2.99 2.99 0 0 0 24 3H4a2.99 2.99 0 0 0-2.584 1.502z" fill="#ddb039" data-original="#000000"></path><path d="M27 6.57v6.95a8.645 8.645 0 0 0-3-.52 9.014 9.014 0 0 0-9 9 7.359 7.359 0 0 0 .06 1H4a3.009 3.009 0 0 1-3-3V6.57l11.49 6.71a3.054 3.054 0 0 0 3.02 0z" fill="#ddb039" data-original="#000000"></path><path d="M27 15.697c-4.766-2.323-10.926 1.926-9.922 7.3a6.995 6.995 0 1 0 9.922-7.3zm-6.711 6.597a1.015 1.015 0 0 1 1.414 0l1.293 1.293v-5.586a1 1 0 0 1 2 0v5.586l1.293-1.293a1.013 1.013 0 0 1 1.414 0 1 1 0 0 1 0 1.414l-2.999 3a1.014 1.014 0 0 1-1.416 0l-2.999-3a1 1 0 0 1 0-1.414z" fill="#ddb039" data-original="#000000"></path></g></svg>