<svg width="78" height="42" viewBox="0 0 78 42" fill="none" xmlns="http://www.w3.org/2000/svg">
<path d="M76.4323 4.48643C76.2507 1.83828 73.5955 0.0868054 71.0836 0.955566L56.1866 6.10532C54.0799 6.83453 52.962 9.13029 53.6922 11.2341C54.4223 13.338 56.7211 14.4545 58.8278 13.7253L62.0804 12.6018L47.2289 32.3321L28.6566 8.59298C27.5701 7.20436 25.9456 6.45422 24.1778 6.45422C22.417 6.48214 20.8064 7.30903 19.7653 8.72905L1.52142 33.5707C0.204308 35.3675 0.592103 37.8901 2.38784 39.2054C4.18707 40.5208 6.71299 40.1335 8.03009 38.3402L24.3245 16.1536L42.8758 39.8614C43.9414 41.2221 45.5415 42.0001 47.2708 42.0001H47.3267C49.0491 42.0001 50.6701 41.1907 51.7043 39.8195L69.183 16.5967L69.452 20.487C69.6057 22.7095 71.5342 24.3842 73.7562 24.2307C75.9817 24.0771 77.6586 22.1512 77.5049 19.9322L76.4358 4.49341L76.4323 4.48643Z" fill="url(#paint0_linear_658_149)"/>
<defs>
<linearGradient id="paint0_linear_658_149" x1="78" y1="1.00009" x2="1" y2="42.0001" gradientUnits="userSpaceOnUse">
<stop stop-color="#E39845"/>
<stop offset="1" stop-color="#E28B2A"/>
</linearGradient>
</defs>
</svg>
