<svg xmlns="http://www.w3.org/2000/svg" version="1.1" xmlns:xlink="http://www.w3.org/1999/xlink" xmlns:svgjs="http://svgjs.com/svgjs" width="512" height="512" x="0" y="0" viewBox="0 0 682.667 682.667" style="enable-background:new 0 0 512 512" xml:space="preserve" class=""><g><defs><clipPath id="a" clipPathUnits="userSpaceOnUse"><path d="M0 512h512V0H0Z" fill="#15a600" data-original="#000000" opacity="1"></path></clipPath></defs><g clip-path="url(#a)" transform="matrix(1.33333 0 0 -1.33333 0 682.667)"><path d="M0 0c0 8.149-6.607 14.756-14.757 14.756-8.15 0-14.756-6.607-14.756-14.756" style="stroke-linecap: round; stroke-linejoin: round; stroke-miterlimit: 10; stroke-dasharray: none; stroke-opacity: 1;" transform="translate(121.449 343.065)" fill="none" stroke="#15A600" stroke-width="15px" stroke-linecap="round" stroke-linejoin="round" stroke-miterlimit="10" stroke-dasharray="none" stroke-opacity="" data-original="#000000" opacity="1" class=""></path><path d="M0 0c0 8.149 6.607 14.756 14.756 14.756 8.15 0 14.757-6.607 14.757-14.756" style="stroke-linecap: round; stroke-linejoin: round; stroke-miterlimit: 10; stroke-dasharray: none; stroke-opacity: 1;" transform="translate(223.843 343.065)" fill="none" stroke="#15A600" stroke-width="15px" stroke-linecap="round" stroke-linejoin="round" stroke-miterlimit="10" stroke-dasharray="none" stroke-opacity="" data-original="#000000" opacity="1" class=""></path><path d="M0 0c3.806-4.367 9.405-7.131 15.653-7.131C21.901-7.131 27.5-4.367 31.306 0" style="stroke-linecap: round; stroke-linejoin: round; stroke-miterlimit: 10; stroke-dasharray: none; stroke-opacity: 1;" transform="translate(156.993 325.817)" fill="none" stroke="#15A600" stroke-width="15px" stroke-linecap="round" stroke-linejoin="round" stroke-miterlimit="10" stroke-dasharray="none" stroke-opacity="" data-original="#000000" opacity="1" class=""></path><path d="M0 0c0-40.846-33.111-73.957-73.957-73.957-40.845 0-73.957 33.111-73.957 73.957 0 40.845 33.112 73.956 73.957 73.956C-33.111 73.956 0 40.845 0 0Z" style="stroke-linecap: round; stroke-linejoin: round; stroke-miterlimit: 10; stroke-dasharray: none; stroke-opacity: 1;" transform="translate(451.12 258.4)" fill="none" stroke="#15A600" stroke-width="15px" stroke-linecap="round" stroke-linejoin="round" stroke-miterlimit="10" stroke-dasharray="none" stroke-opacity="" data-original="#000000" opacity="1" class=""></path><path d="M0 0c12.985 0 25.44-2.251 37.016-6.36 1.621 14.445 5.915 31.765 16.154 46.838a59.823 59.823 0 0 1-11.634 16.39C27.441 70.964 8.072 76.57-10.219 73.689a29.53 29.53 0 0 1-24.611-24.61C-37.641 31.23-32.346 12.37-18.993-1.629A111.401 111.401 0 0 0 0 0Z" style="stroke-linecap: round; stroke-linejoin: round; stroke-miterlimit: 10; stroke-dasharray: none; stroke-opacity: 1;" transform="translate(118.205 429.037)" fill="none" stroke="#15A600" stroke-width="15px" stroke-linecap="round" stroke-linejoin="round" stroke-miterlimit="10" stroke-dasharray="none" stroke-opacity="" data-original="#000000" opacity="1" class=""></path><path d="M0 0a110.283 110.283 0 0 0 18.279 8.24c.105.666.216 1.336.339 2.012 3.358 18.558 11.593 31.376 24.476 38.1 8.655 4.517 12.01 15.196 7.492 23.851-4.517 8.653-15.195 12.009-23.85 7.492C-4.916 63.176-14.762 31.671-17.426 7.937A110.294 110.294 0 0 0 0 0Z" style="stroke-linecap: round; stroke-linejoin: round; stroke-miterlimit: 10; stroke-dasharray: none; stroke-opacity: 1;" transform="translate(172.646 414.74)" fill="none" stroke="#15A600" stroke-width="15px" stroke-linecap="round" stroke-linejoin="round" stroke-miterlimit="10" stroke-dasharray="none" stroke-opacity="" data-original="#000000" opacity="1" class=""></path><path d="M0 0c-13.772-18.454-21.926-41.347-21.926-66.145 0-122.007 92.377-184.075 165.146-127.893 34.587-26.702 73.597-26.677 105.019-6.214a37.447 37.447 0 0 0-1.416 13.766l.002.027a37.54 37.54 0 0 1-13.148 31.736c-17.7 14.995-17.7 42.295 0 57.29a37.54 37.54 0 0 1 13.148 31.737l-.002.028c-1.91 23.115 17.39 42.415 40.506 40.505l.027-.002a37.525 37.525 0 0 1 12.708 1.138c-16.572 40.249-56.175 68.588-102.403 68.588-19.79 0-38.365-5.2-54.441-14.297-16.077 9.097-34.651 14.297-54.442 14.297-25.526 0-49.029-8.645-67.756-23.159" style="stroke-linecap: round; stroke-linejoin: round; stroke-miterlimit: 10; stroke-dasharray: none; stroke-opacity: 1;" transform="translate(29.426 384.477)" fill="none" stroke="#15A600" stroke-width="15px" stroke-linecap="round" stroke-linejoin="round" stroke-miterlimit="10" stroke-dasharray="none" stroke-opacity="" data-original="#000000" opacity="1" class=""></path><path d="m0 0-.028-.002a37.257 37.257 0 0 0-22.395 5.22v-131.952c0-17.678 19.667-28.245 34.405-18.496l9.738 6.444V-4.83A37.515 37.515 0 0 1 0 0Z" style="stroke-linecap: round; stroke-linejoin: round; stroke-miterlimit: 10; stroke-dasharray: none; stroke-opacity: 1;" transform="translate(316.783 157.486)" fill="none" stroke="#15A600" stroke-width="15px" stroke-linecap="round" stroke-linejoin="round" stroke-miterlimit="10" stroke-dasharray="none" stroke-opacity="" data-original="#000000" opacity="1" class=""></path><path d="M0 0v55.289a37.538 37.538 0 0 1-10.01-8.314c-14.995-17.702-42.295-17.702-57.29 0a37.541 37.541 0 0 1-10.017 8.317V-78.664l38.659 25.577L0-78.664V-30" style="stroke-linecap: round; stroke-linejoin: round; stroke-miterlimit: 10; stroke-dasharray: none; stroke-opacity: 1;" transform="translate(415.82 97.364)" fill="none" stroke="#15A600" stroke-width="15px" stroke-linecap="round" stroke-linejoin="round" stroke-miterlimit="10" stroke-dasharray="none" stroke-opacity="" data-original="#000000" opacity="1" class=""></path><path d="M0 0v-48.664l9.738-6.444c14.748-9.748 34.415.818 34.415 18.496V95.343c-6.467-3.894-14.189-5.902-22.4-5.223l-.027.002A37.527 37.527 0 0 1 0 85.289V30" style="stroke-linecap: round; stroke-linejoin: round; stroke-miterlimit: 10; stroke-dasharray: none; stroke-opacity: 1;" transform="translate(415.82 67.364)" fill="none" stroke="#15A600" stroke-width="15px" stroke-linecap="round" stroke-linejoin="round" stroke-miterlimit="10" stroke-dasharray="none" stroke-opacity="" data-original="#000000" opacity="1" class=""></path><path d="M0 0v0a37.54 37.54 0 0 0-13.148 31.736l.002.028c1.91 23.116-17.39 42.416-40.505 40.506l-.028-.002a37.543 37.543 0 0 0-31.737 13.148c-14.995 17.7-42.294 17.7-57.29 0a37.54 37.54 0 0 0-31.736-13.148l-.028.002c-23.115 1.91-42.415-17.39-40.506-40.505l.003-.029A37.544 37.544 0 0 0-228.121 0c-17.701-14.995-17.701-42.295 0-57.29a37.544 37.544 0 0 0 13.148-31.736l-.003-.028c-1.909-23.115 17.391-42.416 40.506-40.506l.028.002a37.543 37.543 0 0 0 31.736-13.147v0c14.996-17.701 42.295-17.701 57.29 0a37.545 37.545 0 0 0 31.737 13.147l.027-.002c23.116-1.91 42.416 17.39 40.506 40.506l-.002.028A37.54 37.54 0 0 0 0-57.29C17.701-42.295 17.701-14.995 0 0Z" style="stroke-linecap: round; stroke-linejoin: round; stroke-miterlimit: 10; stroke-dasharray: none; stroke-opacity: 1;" transform="translate(491.225 287.044)" fill="none" stroke="#15A600" stroke-width="15px" stroke-linecap="round" stroke-linejoin="round" stroke-miterlimit="10" stroke-dasharray="none" stroke-opacity="" data-original="#000000" opacity="1" class=""></path></g></g></svg>