<svg xmlns="http://www.w3.org/2000/svg" version="1.1" xmlns:xlink="http://www.w3.org/1999/xlink" xmlns:svgjs="http://svgjs.com/svgjs" width="512" height="512" x="0" y="0" viewBox="0 0 64 64" style="enable-background:new 0 0 512 512" xml:space="preserve" class=""><g><path d="M9 55v6a1 1 0 0 1-2 0v-6a1 1 0 0 1 2 0Zm47-1a1 1 0 0 0-1 1v6a1 1 0 0 0 2 0v-6a1 1 0 0 0-1-1Zm6-1v8a1 1 0 0 1-2 0v-8a5.006 5.006 0 0 0-5-5h-8a4.97 4.97 0 0 0-1.395.207A8.935 8.935 0 0 1 47 53v8a1 1 0 0 1-2 0v-8a7.008 7.008 0 0 0-7-7h-2.307l-1.163 3.1 1.456 8.736a1 1 0 0 1-.28.871l-3 3a1 1 0 0 1-1.413 0l-3-3a1 1 0 0 1-.28-.87L29.47 49.1 28.307 46H26a7.008 7.008 0 0 0-7 7v8a1 1 0 0 1-2 0v-8a8.935 8.935 0 0 1 1.395-4.793A4.97 4.97 0 0 0 17 48H9a5.006 5.006 0 0 0-5 5v8a1 1 0 0 1-2 0v-8a7.005 7.005 0 0 1 6.882-6.994A6.443 6.443 0 0 1 7 42v-2a6 6 0 0 1 12 0v2a6.879 6.879 0 0 1-2.003 4H17a6.995 6.995 0 0 1 2.725.56A8.965 8.965 0 0 1 26 44h1.416A7.796 7.796 0 0 1 25 39v-3a7 7 0 0 1 14 0v3c0 1.688-1.23 3.508-2.574 5H38a8.965 8.965 0 0 1 6.275 2.56 6.994 6.994 0 0 1 2.608-.552A6.445 6.445 0 0 1 45 42v-2a6 6 0 0 1 12 0v2a6.879 6.879 0 0 1-2.003 4H55a7.008 7.008 0 0 1 7 7Zm-47.487-7.283C16.047 44.22 17 42.797 17 42v-2a4 4 0 0 0-8 0v2c0 1.01.923 2.417 2.468 3.764a.981.981 0 0 0 .646.236h1.7a.995.995 0 0 0 .699-.283Zm19.416 11.94L32.653 50h-1.306l-1.276 7.657L32 59.586ZM31.193 48h1.614l.75-2h-3.114ZM37 39v-3a5 5 0 0 0-10 0v3c0 2.02 2.346 4.164 3.065 4.773A.98.98 0 0 0 30.7 44h2.522a.986.986 0 0 0 .684-.269C35.813 41.901 37 40.088 37 39Zm15.513 6.717C54.047 44.22 55 42.797 55 42v-2a4 4 0 0 0-8 0v2c0 1.01.923 2.417 2.468 3.764a.981.981 0 0 0 .646.236h1.7a.995.995 0 0 0 .699-.283ZM23 54a1 1 0 0 0-1 1v6a1 1 0 0 0 2 0v-6a1 1 0 0 0-1-1Zm18 0a1 1 0 0 0-1 1v6a1 1 0 0 0 2 0v-6a1 1 0 0 0-1-1ZM30 20a3 3 0 0 0 0 6h4a4.999 4.999 0 0 1 4.91 4.066 1 1 0 0 0 .98.815.973.973 0 0 0 .187-.018.999.999 0 0 0 .797-1.168A6.999 6.999 0 0 0 34 24h-4a1 1 0 0 1 0-2h8a2.002 2.002 0 0 0 2-2v-2a2.002 2.002 0 0 0-2-2h-3v-2a2.002 2.002 0 0 0-2-2h-2a2.002 2.002 0 0 0-2 2v2.071a6.995 6.995 0 0 0-3.258 12.478 1 1 0 1 0 1.219-1.586A4.995 4.995 0 0 1 30 18a1 1 0 0 0 1-1v-3h2v3a1 1 0 0 0 1 1h4v2Zm20.353 12a1.025 1.025 0 0 0 .212.022 1 1 0 0 0 .977-.79A19.998 19.998 0 1 0 12 27a20.167 20.167 0 0 0 .458 4.232 1 1 0 1 0 1.955-.42 18 18 0 1 1 35.174 0A1 1 0 0 0 50.353 32ZM8.781 33.154a1 1 0 0 0 .762-1.192 23 23 0 1 1 44.914 0 1 1 0 0 0 .762 1.192 1.022 1.022 0 0 0 .216.024 1 1 0 0 0 .975-.786 25 25 0 1 0-48.82 0 1.005 1.005 0 0 0 1.191.762Z" data-name="18-Crowdfunding" fill="#3E8CAB" data-original="#000000" opacity="1"></path></g></svg>