<svg width="296" height="52" viewBox="0 0 296 52" fill="none" xmlns="http://www.w3.org/2000/svg">
<path d="M3.50739 0C2.53965 0 1.72563 0.341922 1.05834 1.02925C0.387561 1.7131 0.0556641 2.53999 0.0556641 3.50295C0.0556641 4.46592 0.391055 5.29281 1.05834 5.97665C1.72563 6.66398 2.54315 7.00591 3.50739 7.00591C4.47164 7.00591 5.24025 6.66398 5.9285 5.97665C6.61325 5.29281 6.95912 4.46592 6.95912 3.50295C6.95912 2.53999 6.61674 1.71659 5.9285 1.02925C5.24025 0.341922 4.43321 0 3.50739 0Z" fill="#3E8CAB"/>
<path d="M3.45173 10.3938C2.52242 10.3938 1.7084 10.7287 1.00268 11.3951C0.335391 12.0615 0 12.878 0 13.8409V48.4134C0 49.3764 0.335391 50.1928 1.00268 50.8592C1.7084 51.564 2.52242 51.9163 3.45173 51.9163C4.38104 51.9163 5.23349 51.564 5.90078 50.8592C6.56807 50.1928 6.90346 49.3764 6.90346 48.4134V13.8409C6.90346 12.878 6.56807 12.0615 5.90078 11.3951C5.23349 10.7287 4.41598 10.3938 3.45173 10.3938Z" fill="#3E8CAB"/>
<path d="M113.03 10.3936C107.315 10.3936 102.417 12.4138 98.336 16.4505C94.2903 20.4908 92.271 25.3824 92.271 31.1252C92.271 36.8681 94.2938 41.7597 98.336 45.8C102.417 49.8751 107.444 51.9127 113.418 51.9127C116.311 51.9127 119.022 51.5045 121.544 50.688C124.067 49.8367 126.387 48.6505 128.5 47.1328C129.206 46.5396 129.615 45.7616 129.726 44.7986C129.8 43.8357 129.52 42.9843 128.891 42.2412C128.298 41.5364 127.536 41.1282 126.61 41.0165C125.646 40.9433 124.79 41.2015 124.049 41.7946C122.526 42.8308 120.912 43.6089 119.207 44.1287C117.464 44.6835 115.535 44.9626 113.418 44.9626C109.338 44.9626 105.942 43.6089 103.234 40.9049C101.452 39.1255 100.247 37.0321 99.6147 34.6247H130.394C131.32 34.6247 132.12 34.2723 132.787 33.5675C133.493 32.9011 133.845 32.0847 133.845 31.1218C133.845 25.3789 131.823 20.4873 127.78 16.447C123.7 12.4103 118.781 10.3901 113.03 10.3901V10.3936ZM99.6182 27.6781C100.251 25.2323 101.456 23.1215 103.238 21.3421C105.945 18.6381 109.212 17.2844 113.034 17.2844C116.856 17.2844 120.157 18.6381 122.83 21.3421C124.647 23.1215 125.873 25.2323 126.502 27.6781H99.6182Z" fill="#3E8CAB"/>
<path d="M166.294 29.2379C164.069 28.4214 160.282 27.9783 154.94 27.9051C150.709 27.9051 147.687 27.5178 145.867 26.7363C144.124 26.0315 143.233 24.7336 143.194 22.846C143.194 21.2899 144.176 19.9746 146.143 18.9C148.442 17.6788 151.338 17.0648 154.825 17.0648H154.881V17.0089C157.365 17.0473 159.667 17.4346 161.781 18.1743C163.783 18.9174 165.491 19.9536 166.899 21.2864C167.566 21.918 168.366 22.232 169.292 22.232C170.183 22.1936 170.941 21.8447 171.573 21.1748C172.206 20.5084 172.52 19.7304 172.52 18.8407C172.482 17.9161 172.132 17.138 171.462 16.5065C169.383 14.5038 166.899 12.9861 164.003 11.9499C161.183 10.9485 158.14 10.4322 154.874 10.3938C150.273 10.3938 146.304 11.2835 142.964 13.0629C138.733 15.397 136.598 18.6592 136.563 22.846C136.563 27.6992 138.827 31.0556 143.355 32.9048C145.951 33.9445 149.811 34.4783 154.933 34.5167C159.461 34.5551 162.465 34.8691 163.95 35.4622C165.582 36.0554 166.399 37.3882 166.399 39.4641C166.399 40.9086 165.582 42.1332 163.95 43.1311C161.686 44.5406 158.72 45.2628 155.045 45.2977C152.522 45.2977 150.164 44.9104 147.977 44.1289C145.787 43.3509 143.897 42.2204 142.3 40.7376C141.668 40.1445 140.889 39.8479 139.963 39.8479C139.033 39.9212 138.275 40.291 137.681 40.9609C137.049 41.6273 136.752 42.4053 136.791 43.295C136.829 44.2231 137.178 45.0012 137.849 45.6292C140.075 47.6667 142.691 49.2403 145.696 50.3533C148.627 51.393 151.743 51.9094 155.045 51.9094C160.016 51.8361 164.153 50.7789 167.458 48.7414C171.203 46.4456 173.079 43.3509 173.079 39.4606C173.079 34.3458 170.815 30.937 166.287 29.2344L166.294 29.2379Z" fill="#3E8CAB"/>
<path d="M209.207 38.7418C208.389 38.2603 207.519 38.1312 206.59 38.3545C205.661 38.5778 204.959 39.0768 204.476 39.8548C203.474 41.4493 202.139 42.7088 200.469 43.6334C198.873 44.5615 197.129 45.022 195.236 45.022C192.266 45.022 189.705 43.9474 187.557 41.7982C185.443 39.6873 184.384 37.1473 184.384 34.1817V17.288H205.979C206.943 17.288 207.76 16.953 208.428 16.2866C209.095 15.6202 209.43 14.8038 209.43 13.8408C209.43 12.8779 209.095 12.0615 208.428 11.3951C207.76 10.6903 206.943 10.3379 205.979 10.3379H184.384V3.44713C184.384 2.52254 184.049 1.70612 183.382 1.00134C182.714 0.334944 181.897 0 180.933 0C179.968 0 179.189 0.334944 178.484 1.00134C177.816 1.70612 177.481 2.52254 177.481 3.44713V34.1817C177.481 39.0733 179.224 43.2426 182.714 46.6863C186.166 50.1683 190.338 51.9128 195.236 51.9128C198.279 51.9128 201.154 51.1557 203.862 49.6345C206.569 48.1516 208.721 46.1141 210.318 43.5217C210.838 42.7053 210.985 41.8366 210.762 40.9085C210.538 39.9839 210.017 39.2582 209.203 38.7418H209.207Z" fill="#3E8CAB"/>
<path d="M233.694 10.3938C227.978 10.3938 223.08 12.4139 219 16.4507C214.954 20.491 212.935 25.3825 212.935 31.1254C212.935 36.8683 214.957 41.7599 219 45.8001C223.08 49.8753 227.978 51.9129 233.694 51.9129C239.409 51.9129 244.36 49.8753 248.444 45.8001C252.49 41.7599 254.509 36.8683 254.509 31.1254C254.509 25.3825 252.486 20.491 248.444 16.4507C244.363 12.4139 239.444 10.3938 233.694 10.3938ZM243.49 40.9086C240.817 43.6125 237.554 44.9663 233.694 44.9663C229.833 44.9663 226.605 43.6125 223.898 40.9086C221.19 38.2046 219.835 34.9424 219.835 31.1254C219.835 27.3085 221.19 24.0497 223.898 21.3423C226.605 18.6383 229.872 17.2846 233.694 17.2846C237.516 17.2846 240.817 18.6383 243.49 21.3423C246.236 24.0462 247.609 27.3085 247.609 31.1254C247.609 34.9424 246.236 38.2046 243.49 40.9086Z" fill="#3E8CAB"/>
<path d="M290.075 15.7843C286.476 12.1906 282.134 10.3938 277.05 10.3938C271.967 10.3938 267.625 12.1906 264.026 15.7843C260.428 19.378 258.628 23.7148 258.628 28.7913V48.4657C258.628 49.3938 258.964 50.1893 259.631 50.8557C260.337 51.5605 261.151 51.9129 262.08 51.9129C263.009 51.9129 263.879 51.5605 264.585 50.8557C265.214 50.1893 265.532 49.3938 265.532 48.4657V28.7913C265.532 25.6058 266.664 22.8984 268.928 20.6759C271.153 18.415 273.861 17.2846 277.054 17.2846C280.247 17.2846 282.955 18.415 285.18 20.6759C287.444 22.8984 288.576 25.6058 288.576 28.7913C288.576 29.7159 288.89 30.5323 289.523 31.2371C290.19 31.9035 291.025 32.2384 292.028 32.2384C292.954 32.2384 293.754 31.907 294.421 31.2371C295.127 30.5323 295.479 29.7193 295.479 28.7913C295.479 23.7148 293.68 19.378 290.082 15.7843H290.075Z" fill="#3E8CAB"/>
<path d="M87.4323 14.4864C87.2507 11.8383 84.5955 10.0868 82.0836 10.9556L67.1866 16.1053C65.0799 16.8345 63.962 19.1303 64.6922 21.2341C65.4223 23.338 67.7211 24.4545 69.8278 23.7253L73.0804 22.6018L58.2289 42.3321L39.6566 18.593C38.5701 17.2044 36.9456 16.4542 35.1778 16.4542C33.417 16.4821 31.8064 17.309 30.7653 18.7291L12.5214 43.5707C11.2043 45.3675 11.5921 47.8901 13.3878 49.2054C15.1871 50.5208 17.713 50.1335 19.0301 48.3402L35.3245 26.1536L53.8758 49.8614C54.9414 51.2221 56.5415 52.0001 58.2708 52.0001H58.3267C60.0491 52.0001 61.6701 51.1907 62.7043 49.8195L80.183 26.5967L80.452 30.487C80.6057 32.7095 82.5342 34.3842 84.7562 34.2307C86.9817 34.0771 88.6586 32.1512 88.5049 29.9322L87.4358 14.4934L87.4323 14.4864Z" fill="url(#paint0_linear_1_69)"/>
<path d="M87.4323 14.4864C87.2507 11.8383 84.5955 10.0868 82.0836 10.9556L67.1866 16.1053C65.0799 16.8345 63.962 19.1303 64.6922 21.2341C65.4223 23.338 67.7211 24.4545 69.8278 23.7253L73.0804 22.6018L58.2289 42.3321L39.6566 18.593C38.5701 17.2044 36.9456 16.4542 35.1778 16.4542C33.417 16.4821 31.8064 17.309 30.7653 18.7291L12.5214 43.5707C11.2043 45.3675 11.5921 47.8901 13.3878 49.2054C15.1871 50.5208 17.713 50.1335 19.0301 48.3402L35.3245 26.1536L53.8758 49.8614C54.9414 51.2221 56.5415 52.0001 58.2708 52.0001H58.3267C60.0491 52.0001 61.6701 51.1907 62.7043 49.8195L80.183 26.5967L80.452 30.487C80.6057 32.7095 82.5342 34.3842 84.7562 34.2307C86.9817 34.0771 88.6586 32.1512 88.5049 29.9322L87.4358 14.4934L87.4323 14.4864Z" fill="url(#paint1_linear_1_69)"/>
<defs>
<linearGradient id="paint0_linear_1_69" x1="89" y1="11.0001" x2="12" y2="52.0001" gradientUnits="userSpaceOnUse">
<stop stop-color="#E39845"/>
<stop offset="1" stop-color="#E28B2A"/>
</linearGradient>
<linearGradient id="paint1_linear_1_69" x1="89" y1="11.0001" x2="12" y2="52.0001" gradientUnits="userSpaceOnUse">
<stop stop-color="#E39845"/>
<stop offset="1" stop-color="#E28B2A"/>
</linearGradient>
</defs>
</svg>
