<svg xmlns="http://www.w3.org/2000/svg" version="1.1" xmlns:xlink="http://www.w3.org/1999/xlink" xmlns:svgjs="http://svgjs.com/svgjs" width="512" height="512" x="0" y="0" viewBox="0 0 512 512" style="enable-background:new 0 0 512 512" xml:space="preserve" class=""><g><path d="M284.5 446.2c-9.6 0-19.3-1.8-28.4-5.5l-98.8-36.6c-6.1-2.3-12.4-4-18.8-5.2-12.4-2.3-25.1-2.6-37.6-.7l-17 2.5c-2.7.4-5.2-1.5-5.5-4.1-.4-2.7 1.5-5.2 4.1-5.5l17-2.5c13.6-2 27.3-1.7 40.9.8 6.9 1.3 13.8 3.2 20.4 5.6l98.8 36.6s.1 0 .1.1c17.2 7 36.7 6.4 53.4-1.7L452 362.7c4-1.9 6.9-5.3 8.3-9.4 1.4-4.2 1.1-8.6-.8-12.6-2.8-5.6-8.4-9-14.6-9-1.5 0-2.9.2-4.4.6l-116.3 34.5c-2.6.8-5.3-.7-6.1-3.3s.7-5.3 3.3-6.1L437.8 323c2.4-.7 4.7-1 7.1-1 9.9 0 18.9 5.5 23.3 14.4 3.1 6.3 3.6 13.4 1.4 20.1-2.3 6.6-7 12-13.3 15l-138.8 67.1c-10.4 5.1-21.7 7.6-33 7.6z" fill="#FFFFFF" data-original="#000000" opacity="1"></path><path d="M304.1 385.9c-2.3 0-4.7-.3-7-1.1l-86.3-26.5c-2.6-.8-4-3.5-3.2-6.1s3.5-4 6.1-3.2l86.3 26.5c7.1 2.2 14.7-1.6 17.2-8.6.5-1.5.8-3.1.8-4.7 0-.5 0-1-.1-1.5-.5-4.3-3-8.2-6.7-10.4l-105.9-43.1c-23.5-9.6-49.3-13.3-74.6-10.9l-46.8 5.4c-2.7.3-5.1-1.6-5.4-4.3s1.6-5.1 4.3-5.4l46.9-5.4c26.9-2.6 54.3 1.4 79.3 11.6l106.3 43.2.6.3c6.5 3.7 10.9 10.4 11.8 17.9.1.8.2 1.7.2 2.6 0 2.7-.5 5.4-1.4 7.9-3.6 9.7-12.7 15.8-22.4 15.8z" fill="#FFFFFF" data-original="#000000" opacity="1"></path><path d="M63.7 420.3H45.9c-2.7 0-4.9-2.2-4.9-4.9V277.3c0-2.7 2.2-4.9 4.9-4.9h17.8c13.5 0 24.4 11 24.4 24.4v99c0 13.5-10.9 24.5-24.4 24.5zm-12.9-9.8h12.9c8.1 0 14.7-6.6 14.7-14.7v-99c0-8.1-6.6-14.7-14.7-14.7H50.8zM359.2 256.6h-72.9c-2.7 0-4.9-2.2-4.9-4.9s2.2-4.9 4.9-4.9h72.9c2.7 0 4.9 2.2 4.9 4.9s-2.2 4.9-4.9 4.9z" fill="#FFFFFF" data-original="#000000" opacity="1"></path><path d="M348.3 287.4h-51c-8.7 0-15.8-7.1-15.8-15.8V250c0-7.8-3.4-15.3-9.4-20.7-16-14.4-25.2-35-25.2-56.5 0-21 8.4-40.6 23.7-55 15.2-14.5 35.2-21.8 56.3-20.7 39.1 2.1 70.6 34.4 71.7 73.6.6 22.7-8.8 44.4-25.9 59.3-5.4 4.8-8.6 11.8-8.6 19.3v22.2c0 8.8-7.1 15.9-15.8 15.9zm-25.5-180.6c-17 0-33 6.4-45.4 18.1-13.3 12.6-20.6 29.6-20.6 48 0 18.7 8 36.7 22 49.2 8 7.2 12.6 17.4 12.6 27.9v21.6c0 3.3 2.7 6 6 6h51c3.3 0 6-2.7 6-6v-22.2c0-10.3 4.3-20.1 11.9-26.7 14.9-13 23.2-31.9 22.6-51.7-1-34.2-28.4-62.3-62.5-64.1-1.2 0-2.4-.1-3.6-.1z" fill="#FFFFFF" data-original="#000000" opacity="1"></path><path d="M322.8 319.2c-17.2 0-31.3-14-31.3-31.3v-5.4c0-2.7 2.2-4.9 4.9-4.9s4.9 2.2 4.9 4.9v5.4c0 11.8 9.6 21.5 21.5 21.5s21.5-9.6 21.5-21.5v-5.4c0-2.7 2.2-4.9 4.9-4.9s4.9 2.2 4.9 4.9v5.4c0 17.3-14.1 31.3-31.3 31.3zM322.8 81.8c-2.7 0-4.9-2.2-4.9-4.9v-6.2c0-2.7 2.2-4.9 4.9-4.9s4.9 2.2 4.9 4.9v6.2c0 2.7-2.2 4.9-4.9 4.9zM359.6 89.1c-.6 0-1.3-.1-1.9-.4-2.5-1-3.7-3.9-2.6-6.4l2.4-5.7c1-2.5 3.9-3.7 6.4-2.6 2.5 1 3.7 3.9 2.6 6.4l-2.4 5.7c-.8 1.8-2.6 3-4.5 3zM390.7 109.9c-1.3 0-2.5-.5-3.5-1.4-1.9-1.9-1.9-5 0-6.9l4.4-4.4c1.9-1.9 5-1.9 6.9 0s1.9 5 0 6.9l-4.4 4.4c-.9.9-2.1 1.4-3.4 1.4zM411.6 141.1c-1.9 0-3.7-1.1-4.5-3-1-2.5.2-5.4 2.6-6.4l5.7-2.4c2.5-1 5.4.2 6.4 2.6 1 2.5-.2 5.4-2.6 6.4l-5.7 2.4c-.7.2-1.3.4-1.9.4zM417.3 217c-.6 0-1.3-.1-1.9-.4l-5.7-2.4c-2.5-1-3.7-3.9-2.6-6.4 1-2.5 3.9-3.7 6.4-2.6l5.7 2.4c2.5 1 3.7 3.9 2.6 6.4-.8 1.8-2.6 3-4.5 3zM286 89.1c-1.9 0-3.7-1.1-4.5-3l-2.4-5.7c-1-2.5.2-5.4 2.6-6.4 2.5-1 5.4.2 6.4 2.6l2.4 5.7c1 2.5-.2 5.4-2.6 6.4-.6.2-1.2.4-1.9.4zM254.9 109.9c-1.3 0-2.5-.5-3.5-1.4l-4.4-4.4c-1.9-1.9-1.9-5 0-6.9s5-1.9 6.9 0l4.4 4.4c1.9 1.9 1.9 5 0 6.9-.9.9-2.2 1.4-3.4 1.4zM234 141.1c-.6 0-1.3-.1-1.9-.4l-5.7-2.4c-2.5-1-3.7-3.9-2.6-6.4 1-2.5 3.9-3.7 6.4-2.6l5.7 2.4c2.5 1 3.7 3.9 2.6 6.4-.7 1.8-2.5 3-4.5 3zM425.1 177.8h-6.2c-2.7 0-4.9-2.2-4.9-4.9s2.2-4.9 4.9-4.9h6.2c2.7 0 4.9 2.2 4.9 4.9-.1 2.7-2.2 4.9-4.9 4.9zM226.7 177.8h-6.2c-2.7 0-4.9-2.2-4.9-4.9s2.2-4.9 4.9-4.9h6.2c2.7 0 4.9 2.2 4.9 4.9s-2.2 4.9-4.9 4.9zM228.3 217c-1.9 0-3.7-1.1-4.5-3-1-2.5.2-5.4 2.6-6.4l5.7-2.4c2.5-1 5.4.2 6.4 2.6 1 2.5-.2 5.4-2.6 6.4l-5.7 2.4c-.6.2-1.2.4-1.9.4zM309.9 199.8c-1.3 0-2.5-.5-3.5-1.4l-18.1-18.1c-1.9-1.9-1.9-5 0-6.9s5-1.9 6.9 0l14.7 14.7 40.5-40.5c1.9-1.9 5-1.9 6.9 0s1.9 5 0 6.9l-44 44c-.9.8-2.2 1.3-3.4 1.3z" fill="#FFFFFF" data-original="#000000" opacity="1"></path></g></svg>