<svg xmlns="http://www.w3.org/2000/svg" version="1.1" xmlns:xlink="http://www.w3.org/1999/xlink" xmlns:svgjs="http://svgjs.com/svgjs" width="512" height="512" x="0" y="0" viewBox="0 0 512 512" style="enable-background:new 0 0 512 512" xml:space="preserve" class=""><g><path d="M510.348 227.649c3.08-30.814-4.916-61.807-22.512-87.266-8.193-11.864-24.848-14.473-36.345-5.604-5.54 4.273-8.986 10.454-9.706 17.399-1.848 17.747-6.35 34.375-13.406 49.745-19.676-27.751-54.731-41.056-88.38-32.212a57.902 57.902 0 0 0-7.816-17.597c19.771-2.8 34.262-18.791 36.271-37.615a7.501 7.501 0 0 0-3.053-6.865c-11.249-8.166-25.811-10.263-38.817-5.821l5.623-14.628a7.5 7.5 0 0 0-4.31-9.692 7.499 7.499 0 0 0-9.692 4.31c-.04.101-18.22 46.944-18.253 47.045-27.379-7.413-57.836 6.59-68.328 36.262-3.024 8.772-8.046 16.412-14.691 22.463-3.815-24.39-14.459-43.805-29.874-54.235a59.948 59.948 0 0 0-.853-28.64 7.5 7.5 0 0 0-5.358-5.259c-22.281-5.73-47.092.547-63.603 17.997V99.495c0-4.143-3.357-7.5-7.5-7.5s-7.5 3.357-7.5 7.5v43.836c-31.085-27.686-67.102-23.275-86.806 7.991C-11.113 193.457.367 267.835 38.389 307.89l10.731 13.042-21.792-2.118c-12.709-1.222-23.861 8.069-25.084 20.639-1.231 12.676 8.06 23.859 20.639 25.083l21.792 2.118-17.754 14.608c-9.825 8.085-11.194 22.558-3.143 32.326 8.095 9.84 22.582 11.164 32.328 3.144l30.707-25.267a70.712 70.712 0 0 1 20.298-11.644l-.009.092c-2.838 29.207 19.992 55.093 50.135 55.093l302.756-.835A50.073 50.073 0 0 0 509.85 388.8a50.073 50.073 0 0 0-40.185-54.125l-26.52-5.281a165.979 165.979 0 0 0 27.224-20.654c22.678-21.227 36.875-50.027 39.979-81.091zm-90.076-10.431c-20.071 33.02-51.657 56.646-87.355 68.383 4.871-14.674 5.61-30.843 1.309-46.703-2.807-10.377-1.787-21.953 2.873-32.601a55.957 55.957 0 0 0 4.682-21.512c30.535-9.085 63.382 4.719 78.491 32.433zm-67.596-99.814c-4.641 16.578-23.131 24.995-38.742 17.319.099-.093 10.761-31.22 38.742-17.319zM245.789 170.05c7.482-21.289 30.468-34.464 56.011-24.714 20.816 9.184 30.803 33.769 21.555 54.954-6.021 13.759-7.304 28.861-3.607 42.529 5.814 21.451.311 43.443-12.877 59.436l-21.018-4.186a48.397 48.397 0 0 0 15.183-20.632c9.616-25.007-2.846-53.02-27.849-62.631-25.006-9.617-53.019 2.847-62.631 27.849-5.292 13.761-3.8 28.782 2.999 41.016l-20.975-4.177c-8.547-27.587 1.682-58.005 26.351-74.48 12.582-8.404 21.875-20.511 26.858-34.964zm-7.39 118.568c-13.679-8.293-19.631-25.527-13.842-40.581 6.594-17.153 25.613-25.611 42.599-19.48 32.14 11.599 28.048 59.34-6.208 64.552zM172.73 113.046a44.95 44.95 0 0 1 .262 13.717c-19.197-5.432-38.583 2.001-53.993 15.045 8.647-20.771 31.182-32.485 53.731-28.762zM28.131 159.32c19.551-31.027 52.825-22.017 75.669 7.706 2.975 3.881 8.887 3.921 11.893 0 15.458-20.112 34.641-29.953 51.312-26.313a32.916 32.916 0 0 1 7.952 2.853c15.411 7.867 26.017 28.621 28.138 54.657-22.735 19.311-32.715 49.351-26.819 78.023l-3.534-.704c-29.175-5.806-56.937 14.894-59.807 44.404l-.011.109a70.494 70.494 0 0 1-17.671-15.351l-25.269-30.71c-9.631-11.705-27.874-11.109-36.632 1.557-5.906-10.666-10.536-22.727-13.546-35.525-7.242-30.772-4.129-60.944 8.325-80.706zm49.157 220.56-30.711 25.27c-3.415 2.812-8.434 2.282-11.212-1.085a7.963 7.963 0 0 1 1.089-11.219l31.736-26.112a7.5 7.5 0 0 0-4.04-13.257l-39.814-3.87c-4.32-.421-7.591-4.284-7.16-8.702.418-4.296 4.23-7.585 8.702-7.16l39.814 3.87a7.485 7.485 0 0 0 7.345-3.938 7.5 7.5 0 0 0-.827-8.293l-26.112-31.735a7.956 7.956 0 0 1 1.096-11.218 7.956 7.956 0 0 1 11.208 1.095l25.272 30.715a85.245 85.245 0 0 0 27.67 22.068l-2.649 27.254a85.775 85.775 0 0 0-31.407 16.317zm417.635 7.47a35.12 35.12 0 0 1-34.969 31.822c2.106 0-39.74.117-92.955.263l2.042-21.011a7.5 7.5 0 0 0-6.739-8.19 7.495 7.495 0 0 0-8.19 6.739l-2.188 22.504-47.109.129 2.642-27.169a7.5 7.5 0 0 0-6.739-8.19c-4.107-.413-7.789 2.616-8.19 6.739l-2.787 28.661-47.108.128 3.24-33.325a7.5 7.5 0 0 0-6.739-8.19c-4.118-.408-7.789 2.617-8.19 6.739l-3.385 34.818-47.109.128 3.838-39.481a7.5 7.5 0 0 0-6.739-8.19 7.494 7.494 0 0 0-8.19 6.739l-3.983 40.973-8.177.022c-21.172 0-37.152-18.188-35.164-38.642l5.83-59.968c2.014-20.723 21.517-35.215 41.947-31.145l38.514 7.67-3.684 37.893a7.5 7.5 0 0 0 6.739 8.19c4.094.405 7.787-2.596 8.19-6.739l3.539-36.4 46.201 9.201-3.085 31.735a7.5 7.5 0 0 0 6.739 8.19c4.094.405 7.787-2.596 8.19-6.739l2.94-30.242 46.202 9.201-2.487 25.577a7.5 7.5 0 0 0 14.929 1.451l2.342-24.084 46.201 9.201-1.887 19.418a7.5 7.5 0 0 0 6.739 8.19c4.094.405 7.787-2.596 8.19-6.739l1.742-17.925 60.671 12.083a35.126 35.126 0 0 1 28.186 37.965zm-34.8-89.562c-11.875 11.108-25.413 20.178-40.206 26.979l-96.77-19.272a80.6 80.6 0 0 0 1.194-1.827c46.917-11.618 87.272-41.115 110.898-82.307l.072-.121c11.655-20.36 18.841-42.977 21.396-67.513a10.176 10.176 0 0 1 3.947-7.071c4.854-3.746 11.63-2.4 14.843 2.254 32.172 46.549 25.561 110.553-15.374 148.878z" fill="#FFFFFF" data-original="#000000" opacity="1" class=""></path></g></svg>