<svg xmlns="http://www.w3.org/2000/svg" version="1.1" xmlns:xlink="http://www.w3.org/1999/xlink" xmlns:svgjs="http://svgjs.com/svgjs" width="512" height="512" x="0" y="0" viewBox="0 0 512 512" style="enable-background:new 0 0 512 512" xml:space="preserve" class=""><g><path d="m318.56 283.97-72.54 1.17c-7.03-11.99-16.88-25.89-35.33-39.84-10.08-7.62-21.12-11.32-33.75-11.32H46.88c-17.58 0-31.88 14.3-31.88 31.88v116.92c0 12.58 2.41 20.79 7.6 25.87 6.69 6.54 16.25 6.33 26.36 6.11h.18v73.35a6 6 0 0 0 5.95 6l138.57 1.23h.05c1.58 0 3.1-.62 4.22-1.74a5.993 5.993 0 0 0 1.78-4.26v-38.45l47.42 1.06h.13a6 6 0 0 0 5.34-3.27l19.69-38.48h20.5c3.31 0 6-2.69 6-6v-51.67l25.4-60.23c.79-1.87.58-4.01-.56-5.69-1.13-1.68-3.05-2.65-5.07-2.64zM55.29 402.68h-.15c-2.24 0-4.38.05-6.44.09-8.17.18-14.62.32-17.71-2.69-2.65-2.59-3.99-8.41-3.99-17.29V265.87c0-10.96 8.92-19.88 19.88-19.88h130.06c10.06 0 18.49 2.83 26.52 8.89 13.88 10.49 22.43 20.98 28.61 30.49l-38.01.62a6.005 6.005 0 0 0-5.39 3.57l-31.75 71.75c-8.92-.6-21.03-.83-33.77-1.08-15.83-.3-32.12-.61-44.38-1.63v-60.38c0-3.31-2.69-6-6-6s-6 2.69-6 6v65.82c0 3.05 2.29 5.62 5.32 5.96 13.15 1.5 32.3 1.87 50.83 2.22 10.59.2 20.74.4 28.82.8l-13.12 29.65H55.43c-.05.01-.1.01-.14.01zm132.42 80.61-126.57-1.12v-67.49h72.16l-11.58 26.16c-.81 1.83-.65 3.95.42 5.65a6.006 6.006 0 0 0 4.93 2.78l60.63 1.35v32.67zm99.08-85.09h-34.77c-11.27 0-20.44-9.17-20.44-20.44s9.17-20.44 20.44-20.44h34.77zm2.02-52.88h-36.79c-17.89 0-32.44 14.55-32.44 32.44s14.55 32.44 32.44 32.44h6.79l-15.18 29.66-107.29-2.39 61.75-139.55 111.47-1.8zM124.03 219.81c35.3 0 64.01-28.72 64.01-64.01s-28.72-64.02-64.01-64.02-64.01 28.72-64.01 64.02 28.71 64.01 64.01 64.01zm0-116.03c28.68 0 52.01 23.33 52.01 52.02s-23.33 52.01-52.01 52.01-52.02-23.33-52.02-52.01 23.34-52.02 52.02-52.02zm349.35-87.12H256.57c-13.03 0-23.62 10.6-23.62 23.62v130.93c0 13.03 10.6 23.62 23.62 23.62h16.25v60.94c0 2.46 1.5 4.67 3.79 5.58a6.012 6.012 0 0 0 6.59-1.47l61.03-65.04h129.15c13.03 0 23.62-10.6 23.62-23.62V40.29c0-13.03-10.6-23.63-23.62-23.63zM485 171.22c0 6.41-5.21 11.62-11.62 11.62H341.63c-1.66 0-3.24.69-4.38 1.89l-52.43 55.88v-51.77c0-3.31-2.69-6-6-6h-22.25c-6.41 0-11.62-5.21-11.62-11.62V40.29c0-6.41 5.21-11.62 11.62-11.62h216.81c6.41 0 11.62 5.21 11.62 11.62zm-96.39-75.73c5.12-5.66 8.24-13.15 8.24-21.36 0-17.58-14.3-31.88-31.88-31.88s-31.88 14.3-31.88 31.88c0 8.21 3.12 15.71 8.24 21.36-16.37 2.94-28.84 17.28-28.84 34.48v20.84c0 7.83 6.37 14.21 14.21 14.21h76.53c7.83 0 14.21-6.37 14.21-14.21v-20.84c.01-17.2-12.46-31.54-28.83-34.48zm-23.64-41.24c10.96 0 19.88 8.92 19.88 19.88S375.93 94 364.97 94s-19.88-8.92-19.88-19.88 8.92-19.87 19.88-19.87zm40.48 96.56c0 1.2-1.01 2.21-2.21 2.21h-12.28v-19.35c0-3.31-2.69-6-6-6s-6 2.69-6 6v19.35h-27.98v-19.35c0-3.31-2.69-6-6-6s-6 2.69-6 6v19.35H326.7c-1.2 0-2.21-1.01-2.21-2.21v-20.84c0-12.71 10.34-23.05 23.05-23.05h34.86c12.71 0 23.05 10.34 23.05 23.05z" fill="#3E8CAB" data-original="#000000" opacity="1"></path></g></svg>