<svg xmlns="http://www.w3.org/2000/svg" version="1.1" xmlns:xlink="http://www.w3.org/1999/xlink" xmlns:svgjs="http://svgjs.com/svgjs" width="512" height="512" x="0" y="0" viewBox="0 0 512 512" style="enable-background:new 0 0 512 512" xml:space="preserve" class=""><g><path fill-rule="evenodd" d="M427.747 274.273a68.071 68.071 0 1 0-68.07 68.071 68.078 68.078 0 0 0 68.07-68.071zm-124.041-.052a55.932 55.932 0 1 1 55.881 55.926 55.939 55.939 0 0 1-55.881-55.926zM492.978 446.07a21.55 21.55 0 0 1-7.446 29.49l-13.255 7.908a21.519 21.519 0 0 1-29.485-7.447L430.4 455.268H47.738C30.237 455.268 16 440.2 16 421.683V59.081C16 40.563 30.237 25.5 47.738 25.5h394.308c17.5 0 31.738 15.066 31.738 33.584V413.91l19.193 32.16zM47.738 37.681c-10.782 0-19.554 9.6-19.554 21.4v45.274H461.6V59.081c0-11.8-8.773-21.4-19.554-21.4zm0 405.4c-10.782 0-19.554-9.6-19.554-21.4V116.539H461.6V393.5l-.052-.087a21.566 21.566 0 0 0-18.143-10.455l-16.347-27.74a21.554 21.554 0 0 0 1.143-16.66 94.005 94.005 0 1 0-104.344 22.6 95.109 95.109 0 0 0 35.9 7.056h.059a93.957 93.957 0 0 0 17.719-1.694 21.532 21.532 0 0 0 16.753 8.422l16.353 27.75a21.647 21.647 0 0 0 .717 20.671l11.77 19.721H47.735zm371.647-49.558 11.917-7.108-13-22.059-11.917 7.107zm-40.459-39.768a81.841 81.841 0 1 1 37.726-20.823 6.179 6.179 0 0 0-.792 7.845 9.324 9.324 0 0 1-3.223 12.783c-4.066 2.427-13.66 9.222-18.028 9.222a9.339 9.339 0 0 1-8.009-4.54c-1.791-3.044-3.767-5.442-7.674-4.487zM479.289 465.1a9.378 9.378 0 0 0 4.536-8.039 9.264 9.264 0 0 0-1.31-4.746l-31.428-52.661a9.359 9.359 0 0 0-12.783-3.227l-13.254 7.909a9.378 9.378 0 0 0-3.228 12.781l31.429 52.663a9.335 9.335 0 0 0 8.01 4.542c4.366 0 13.962-6.8 18.028-9.222zM172.466 73.705a6.093 6.093 0 0 0 6.092 6.092h238.39a6.092 6.092 0 1 0 0-12.184h-238.39a6.093 6.093 0 0 0-6.092 6.092zm-38.883 0a6.093 6.093 0 0 0 6.092 6.092h.024a6.1 6.1 0 1 0-6.116-6.1v.006zm-33.424 0a6.091 6.091 0 0 0 6.089 6.092h.024a6.1 6.1 0 1 0-6.116-6.1v.006zm-33.422 0h.006a6.091 6.091 0 0 0 6.086 6.095h.024a6.1 6.1 0 1 0-6.116-6.1v.006zM292.5 369.073a6.092 6.092 0 1 1 0 12.184h-39.2l-6.215 14.994a6.1 6.1 0 0 1-5.629 3.759h-49.562a6.093 6.093 0 0 1-6.091-6.093c0-2.442 3.652-10.025 4.744-12.659H96.394a6.093 6.093 0 0 1-6.092-6.092v-24.291H80.32a6.1 6.1 0 0 1-4.853-2.408l-16.075-21.184a6.12 6.12 0 0 1 0-7.365l16.076-21.187a6.092 6.092 0 0 1 4.852-2.409h9.98v-36.863a6.094 6.094 0 0 1 6.092-6.09h94.734l27.228-27.226v-27.158h-91.089v12.66a6.093 6.093 0 0 1-6.092 6.092H71.615a6.092 6.092 0 0 1-6.092-6.091v-37.5a6.093 6.093 0 0 1 6.091-6.093h49.559a6.094 6.094 0 0 1 6.092 6.093v12.665h97.183a6.093 6.093 0 0 1 6.092 6.092v33.25l29.01 29.011a6.117 6.117 0 0 1 0 8.616l-29.01 29.011v57.529H257a6.093 6.093 0 0 1 5.628 8.425l-4.281 10.328zM115.081 205.552v-25.319H77.707v25.319zm109.366 31.73-22.18 22.177 22.18 22.186 22.181-22.186zM71.89 323.6l11.453 15.094h26.1L120.9 323.6l-11.453-15.089h-26.1zm30.6 45.473h93.108l6.219-14.989a6.094 6.094 0 0 1 5.628-3.759h10.915v-57.539l-27.228-27.231h-88.646v30.776h9.981a6.091 6.091 0 0 1 4.852 2.411l16.081 21.176a6.12 6.12 0 0 1 0 7.366l-16.074 21.182a6.1 6.1 0 0 1-4.853 2.409h-9.984v18.2zm134.9 18.751q5.247-12.66 10.5-25.32h-36.38q-5.247 12.66-10.5 25.32z" fill="#3E8CAB" data-original="#000000" opacity="1" class=""></path></g></svg>