<svg xmlns="http://www.w3.org/2000/svg" version="1.1" xmlns:xlink="http://www.w3.org/1999/xlink" xmlns:svgjs="http://svgjs.com/svgjs" width="512" height="512" x="0" y="0" viewBox="0 0 682.667 682.667" style="enable-background:new 0 0 512 512" xml:space="preserve"><g><defs><clipPath id="a" clipPathUnits="userSpaceOnUse"><path d="M0 512h512V0H0Z" fill="#ddb039" data-original="#000000" opacity="1"></path></clipPath></defs><g clip-path="url(#a)" transform="matrix(1.33333 0 0 -1.33333 0 682.667)"><path d="M0 0c27.771-7.08 48.74-31.51 50.34-61.38l3.37-62.81" style="stroke-linecap: round; stroke-linejoin: round; stroke-miterlimit: 10; stroke-dasharray: none; stroke-opacity: 1;" transform="translate(357.84 285.06)" fill="none" stroke="#DDB039" stroke-width="15px" stroke-linecap="round" stroke-linejoin="round" stroke-miterlimit="10" stroke-dasharray="none" stroke-opacity="" data-original="#000000" opacity="1"></path><path d="m0 0 3.37 62.81c1.6 29.87 22.569 54.3 50.34 61.38" style="stroke-linecap: round; stroke-linejoin: round; stroke-miterlimit: 10; stroke-dasharray: none; stroke-opacity: 1;" transform="translate(100.45 160.87)" fill="none" stroke="#DDB039" stroke-width="15px" stroke-linecap="round" stroke-linejoin="round" stroke-miterlimit="10" stroke-dasharray="none" stroke-opacity="" data-original="#000000" opacity="1"></path><path d="M0 0v-17.33c0-9.13-6.189-17.1-15.04-19.37l-68.17-17.47c-35.39-9.07-60.14-40.96-60.14-77.49v-85.98" style="stroke-linecap: round; stroke-linejoin: round; stroke-miterlimit: 10; stroke-dasharray: none; stroke-opacity: 1;" transform="translate(206.92 225.14)" fill="none" stroke="#DDB039" stroke-width="15px" stroke-linecap="round" stroke-linejoin="round" stroke-miterlimit="10" stroke-dasharray="none" stroke-opacity="" data-original="#000000" opacity="1"></path><path d="M0 0c26.58-13.36 44.05-40.78 44.05-71.47v-85.98" style="stroke-linecap: round; stroke-linejoin: round; stroke-miterlimit: 10; stroke-dasharray: none; stroke-opacity: 1;" transform="translate(404.38 164.95)" fill="none" stroke="#DDB039" stroke-width="15px" stroke-linecap="round" stroke-linejoin="round" stroke-miterlimit="10" stroke-dasharray="none" stroke-opacity="" data-original="#000000" opacity="1"></path><path d="M0 0v-17.33c0-9.13 6.189-17.1 15.04-19.37l32.47-8.32" style="stroke-linecap: round; stroke-linejoin: round; stroke-miterlimit: 10; stroke-dasharray: none; stroke-opacity: 1;" transform="translate(305.08 225.14)" fill="none" stroke="#DDB039" stroke-width="15px" stroke-linecap="round" stroke-linejoin="round" stroke-miterlimit="10" stroke-dasharray="none" stroke-opacity="" data-original="#000000" opacity="1"></path><path d="M0 0c12.927-18.744 34.538-31.037 59.029-31.037 24.492 0 46.103 12.293 59.03 31.037" style="stroke-linecap: round; stroke-linejoin: round; stroke-miterlimit: 10; stroke-dasharray: none; stroke-opacity: 1;" transform="translate(196.97 190.537)" fill="none" stroke="#DDB039" stroke-width="15px" stroke-linecap="round" stroke-linejoin="round" stroke-miterlimit="10" stroke-dasharray="none" stroke-opacity="" data-original="#000000" opacity="1"></path><path d="M0 0c.439.77.87 1.54 1.31 2.32a975.468 975.468 0 0 1 37.36 73.74 8.956 8.956 0 0 0 11.53 4.59l33.529-13.66c4.631-1.88 6.831-7.2 4.861-11.8-8.14-19-17.53-39.01-28.38-59.73" style="stroke-linecap: round; stroke-linejoin: round; stroke-miterlimit: 10; stroke-dasharray: none; stroke-opacity: 1;" transform="translate(315.08 106.59)" fill="none" stroke="#DDB039" stroke-width="15px" stroke-linecap="round" stroke-linejoin="round" stroke-miterlimit="10" stroke-dasharray="none" stroke-opacity="" data-original="#000000" opacity="1"></path><path d="M0 0a962.565 962.565 0 0 1 39.87 58.31" style="stroke-linecap: round; stroke-linejoin: round; stroke-miterlimit: 10; stroke-dasharray: none; stroke-opacity: 1;" transform="translate(250.83 7.5)" fill="none" stroke="#DDB039" stroke-width="15px" stroke-linecap="round" stroke-linejoin="round" stroke-miterlimit="10" stroke-dasharray="none" stroke-opacity="" data-original="#000000" opacity="1"></path><path d="M0 0a822.444 822.444 0 0 0-16.391-24.11" style="stroke-linecap: round; stroke-linejoin: round; stroke-miterlimit: 10; stroke-dasharray: none; stroke-opacity: 1;" transform="translate(333.9 31.61)" fill="none" stroke="#DDB039" stroke-width="15px" stroke-linecap="round" stroke-linejoin="round" stroke-miterlimit="10" stroke-dasharray="none" stroke-opacity="" data-original="#000000" opacity="1"></path><path d="M0 0c-1.88 8.72-4.55 17.15-7.96 25.2" style="stroke-linecap: round; stroke-linejoin: round; stroke-miterlimit: 10; stroke-dasharray: none; stroke-opacity: 1;" transform="translate(394.76 7.5)" fill="none" stroke="#DDB039" stroke-width="15px" stroke-linecap="round" stroke-linejoin="round" stroke-miterlimit="10" stroke-dasharray="none" stroke-opacity="" data-original="#000000" opacity="1"></path><path d="M0 0c24.79 21.17 56.96 33.95 92.11 33.95 35.151 0 67.321-12.78 92.111-33.95" style="stroke-linecap: round; stroke-linejoin: round; stroke-miterlimit: 10; stroke-dasharray: none; stroke-opacity: 1;" transform="translate(163.89 85.49)" fill="none" stroke="#DDB039" stroke-width="15px" stroke-linecap="round" stroke-linejoin="round" stroke-miterlimit="10" stroke-dasharray="none" stroke-opacity="" data-original="#000000" opacity="1"></path><path d="M0 0c-3.41-8.05-6.08-16.48-7.96-25.2" style="stroke-linecap: round; stroke-linejoin: round; stroke-miterlimit: 10; stroke-dasharray: none; stroke-opacity: 1;" transform="translate(125.2 32.7)" fill="none" stroke="#DDB039" stroke-width="15px" stroke-linecap="round" stroke-linejoin="round" stroke-miterlimit="10" stroke-dasharray="none" stroke-opacity="" data-original="#000000" opacity="1"></path><path d="M0 0c-8.797-9.664-15.629-21.146-19.858-33.809" style="stroke-linecap: round; stroke-linejoin: round; stroke-miterlimit: 10; stroke-dasharray: none; stroke-opacity: 1;" transform="translate(185.839 41.31)" fill="none" stroke="#DDB039" stroke-width="15px" stroke-linecap="round" stroke-linejoin="round" stroke-miterlimit="10" stroke-dasharray="none" stroke-opacity="" data-original="#000000" opacity="1"></path><path d="M0 0c-12.579 37.66-48.18 64.88-90.02 64.88-14.946 0-29.095-3.473-41.684-9.655" style="stroke-linecap: round; stroke-linejoin: round; stroke-miterlimit: 10; stroke-dasharray: none; stroke-opacity: 1;" transform="translate(346.02 7.5)" fill="none" stroke="#DDB039" stroke-width="15px" stroke-linecap="round" stroke-linejoin="round" stroke-miterlimit="10" stroke-dasharray="none" stroke-opacity="" data-original="#000000" opacity="1"></path><path d="m0 0-.002-.001C-7.53-3.287-16.314-.302-20.289 6.887a240.995 240.995 0 0 0-17.987 41.219c-2.564 7.789 1.241 16.244 8.756 19.524 13.63 5.949 29.545.157 36.116-13.184a225.067 225.067 0 0 0 8.32-19.072C20.215 21.511 13.602 5.937 0 0Z" style="stroke-linecap: round; stroke-linejoin: round; stroke-miterlimit: 10; stroke-dasharray: none; stroke-opacity: 1;" transform="translate(387.18 32.85)" fill="none" stroke="#DDB039" stroke-width="15px" stroke-linecap="round" stroke-linejoin="round" stroke-miterlimit="10" stroke-dasharray="none" stroke-opacity="" data-original="#000000" opacity="1"></path><path d="m0 0 .002-.001C7.53-3.287 16.314-.302 20.289 6.887a240.995 240.995 0 0 1 17.987 41.219c2.564 7.789-1.241 16.244-8.756 19.524-13.63 5.949-29.545.157-36.116-13.184a225.067 225.067 0 0 1-8.32-19.072C-20.215 21.511-13.602 5.937 0 0Z" style="stroke-linecap: round; stroke-linejoin: round; stroke-miterlimit: 10; stroke-dasharray: none; stroke-opacity: 1;" transform="translate(124.82 32.85)" fill="none" stroke="#DDB039" stroke-width="15px" stroke-linecap="round" stroke-linejoin="round" stroke-miterlimit="10" stroke-dasharray="none" stroke-opacity="" data-original="#000000" opacity="1"></path><path d="M0 0v81.219c0 34.383 27.872 62.255 62.255 62.255h91.93c34.382 0 62.254-27.872 62.254-62.255V0" style="stroke-linecap: round; stroke-linejoin: round; stroke-miterlimit: 10; stroke-dasharray: none; stroke-opacity: 1;" transform="translate(147.78 361.026)" fill="none" stroke="#DDB039" stroke-width="15px" stroke-linecap="round" stroke-linejoin="round" stroke-miterlimit="10" stroke-dasharray="none" stroke-opacity="" data-original="#000000" opacity="1"></path><path d="M0 0a239.446 239.446 0 0 1 30.075 17.53 6.958 6.958 0 0 0 8.507-.503A204.394 204.394 0 0 1 66.368-3.389a204.794 204.794 0 0 1 46.388-20.953v-55.49c0-59.9-48.451-108.46-108.22-108.46-59.768 0-108.22 48.56-108.22 108.46v55.49c17.84.191 42.938 2.359 71.171 11.318" style="stroke-linecap: round; stroke-linejoin: round; stroke-miterlimit: 10; stroke-dasharray: none; stroke-opacity: 1;" transform="translate(251.464 401.651)" fill="none" stroke="#DDB039" stroke-width="15px" stroke-linecap="round" stroke-linejoin="round" stroke-miterlimit="10" stroke-dasharray="none" stroke-opacity="" data-original="#000000" opacity="1"></path><path d="M0 0h-4.026v55.835H0c15.418 0 27.917-12.499 27.917-27.917C27.917 12.5 15.418 0 0 0Z" style="stroke-linecap: round; stroke-linejoin: round; stroke-miterlimit: 10; stroke-dasharray: none; stroke-opacity: 1;" transform="translate(368.246 319.296)" fill="none" stroke="#DDB039" stroke-width="15px" stroke-linecap="round" stroke-linejoin="round" stroke-miterlimit="10" stroke-dasharray="none" stroke-opacity="" data-original="#000000" opacity="1"></path><path d="M0 0h4.026v55.835H0c-15.418 0-27.917-12.499-27.917-27.917C-27.917 12.5-15.418 0 0 0Z" style="stroke-linecap: round; stroke-linejoin: round; stroke-miterlimit: 10; stroke-dasharray: none; stroke-opacity: 1;" transform="translate(143.754 319.296)" fill="none" stroke="#DDB039" stroke-width="15px" stroke-linecap="round" stroke-linejoin="round" stroke-miterlimit="10" stroke-dasharray="none" stroke-opacity="" data-original="#000000" opacity="1"></path><path d="M0 0v-16.962" style="stroke-linecap: round; stroke-linejoin: round; stroke-miterlimit: 10; stroke-dasharray: none; stroke-opacity: 1;" transform="translate(213.594 348.008)" fill="none" stroke="#DDB039" stroke-width="15px" stroke-linecap="round" stroke-linejoin="round" stroke-miterlimit="10" stroke-dasharray="none" stroke-opacity="" data-original="#000000" opacity="1"></path><path d="M0 0v-16.962" style="stroke-linecap: round; stroke-linejoin: round; stroke-miterlimit: 10; stroke-dasharray: none; stroke-opacity: 1;" transform="translate(298.406 348.008)" fill="none" stroke="#DDB039" stroke-width="15px" stroke-linecap="round" stroke-linejoin="round" stroke-miterlimit="10" stroke-dasharray="none" stroke-opacity="" data-original="#000000" opacity="1"></path><path d="M0 0a35.404 35.404 0 0 1 16.594-4.35C24.945-4.437 31.139-1.528 33.926 0" style="stroke-linecap: round; stroke-linejoin: round; stroke-miterlimit: 10; stroke-dasharray: none; stroke-opacity: 1;" transform="translate(239.037 272.757)" fill="none" stroke="#DDB039" stroke-width="15px" stroke-linecap="round" stroke-linejoin="round" stroke-miterlimit="10" stroke-dasharray="none" stroke-opacity="" data-original="#000000" opacity="1"></path></g></g></svg>