<svg width="127" height="129" viewBox="0 0 127 129" fill="none" xmlns="http://www.w3.org/2000/svg">
<circle opacity="0.1" cx="9" cy="8" r="8" fill="#15a600"/>
<circle opacity="0.1" cx="8" cy="53" r="8" fill="#15a600"/>
<circle opacity="0.1" cx="8" cy="98" r="8" fill="#15a600"/>
<circle opacity="0.1" cx="9" cy="30" r="8" fill="#15a600"/>
<circle opacity="0.1" cx="8" cy="75" r="8" fill="#15a600"/>
<circle opacity="0.1" cx="8" cy="120" r="8" fill="#15a600"/>
<circle opacity="0.1" cx="31" cy="8" r="8" fill="#15a600"/>
<circle opacity="0.1" cx="30" cy="53" r="8" fill="#15a600"/>
<circle opacity="0.1" cx="30" cy="98" r="8" fill="#15a600"/>
<circle opacity="0.1" cx="31" cy="30" r="8" fill="#15a600"/>
<circle opacity="0.1" cx="30" cy="75" r="8" fill="#15a600"/>
<circle opacity="0.1" cx="30" cy="120" r="8" fill="#15a600"/>
<circle opacity="0.1" cx="53" cy="8" r="8" fill="#15a600"/>
<circle opacity="0.1" cx="52" cy="53" r="8" fill="#15a600"/>
<circle opacity="0.1" cx="52" cy="98" r="8" fill="#15a600"/>
<circle opacity="0.1" cx="53" cy="30" r="8" fill="#15a600"/>
<circle opacity="0.1" cx="52" cy="75" r="8" fill="#15a600"/>
<circle opacity="0.1" cx="52" cy="120" r="8" fill="#15a600"/>
<circle opacity="0.1" cx="75" cy="8" r="8" fill="#15a600"/>
<circle opacity="0.1" cx="74" cy="53" r="8" fill="#15a600"/>
<circle opacity="0.1" cx="74" cy="98" r="8" fill="#15a600"/>
<circle opacity="0.1" cx="75" cy="30" r="8" fill="#15a600"/>
<circle opacity="0.1" cx="74" cy="75" r="8" fill="#15a600"/>
<circle opacity="0.1" cx="74" cy="120" r="8" fill="#15a600"/>
<circle opacity="0.1" cx="97" cy="8" r="8" fill="#15a600"/>
<circle opacity="0.1" cx="96" cy="53" r="8" fill="#15a600"/>
<circle opacity="0.1" cx="96" cy="98" r="8" fill="#15a600"/>
<circle opacity="0.1" cx="97" cy="30" r="8" fill="#15a600"/>
<circle opacity="0.1" cx="96" cy="75" r="8" fill="#15a600"/>
<circle opacity="0.1" cx="96" cy="120" r="8" fill="#15a600"/>
<circle opacity="0.1" cx="119" cy="9" r="8" fill="#15a600"/>
<circle opacity="0.1" cx="118" cy="54" r="8" fill="#15a600"/>
<circle opacity="0.1" cx="118" cy="99" r="8" fill="#15a600"/>
<circle opacity="0.1" cx="119" cy="31" r="8" fill="#15a600"/>
<circle opacity="0.1" cx="118" cy="76" r="8" fill="#15a600"/>
<circle opacity="0.1" cx="118" cy="121" r="8" fill="#15a600"/>
</svg>
