<svg xmlns="http://www.w3.org/2000/svg" version="1.1" xmlns:xlink="http://www.w3.org/1999/xlink" xmlns:svgjs="http://svgjs.com/svgjs" width="512" height="512" x="0" y="0" viewBox="0 0 512 512" style="enable-background:new 0 0 512 512" xml:space="preserve" class=""><g><path d="M425.914 403.201a7.967 7.967 0 0 1 4.905-1.371 37.564 37.564 0 0 0 9.827-.803 8.002 8.002 0 0 1 3.356 15.645 53.657 53.657 0 0 1-14.008 1.138 8 8 0 0 1-4.08-14.609zM79.65 227.39c-29.39 0-53.29 23.91-53.29 53.29 0 27.94 47.2 94.9 49.21 97.74.93 1.32 2.46 2.11 4.08 2.11s3.14-.79 4.08-2.11c2.01-2.84 49.21-69.8 49.21-97.74 0-29.38-23.91-53.29-53.29-53.29zm0 64.08c-8.78 0-15.9-7.109-15.9-15.89 0-8.79 7.12-15.9 15.9-15.9s15.9 7.11 15.9 15.9c0 8.78-7.12 15.89-15.9 15.89zM293.99 97.03c-17.33 0-31.431 14.1-31.431 31.43 0 15.74 24.551 50.85 27.351 54.81.939 1.32 2.46 2.11 4.08 2.11s3.14-.79 4.08-2.11c2.8-3.96 27.35-39.07 27.35-54.81 0-17.33-14.1-31.43-31.43-31.43zm5.66 35.74a8.07 8.07 0 0 1-5.66 2.34c-2.101 0-4.17-.85-5.66-2.34s-2.34-3.56-2.34-5.66c0-2.11.85-4.17 2.34-5.66s3.55-2.34 5.66-2.34c2.109 0 4.17.85 5.66 2.34a8.055 8.055 0 0 1 2.34 5.66c0 2.1-.85 4.17-2.34 5.66zM94.411 417.97a8 8 0 1 1 0-16l12-.001a8 8 0 1 1 0 16zM136.411 417.966a8 8 0 1 1 0-16l12-.001a8 8 0 1 1 0 16zM178.411 417.962a8 8 0 1 1 0-16l12-.001a8 8 0 1 1 0 16zM220.411 417.958a8 8 0 1 1 0-16l12-.001a8 8 0 1 1 0 16zM262.412 417.954a8 8 0 0 1-.002-16l12-.001a8 8 0 1 1 .002 16zM304.412 417.95a8 8 0 1 1-.002-16l12-.001a8 8 0 1 1 .002 16zM346.412 417.947a8 8 0 1 1-.002-16l12-.001a8 8 0 1 1 .002 16zM388.412 417.943a8 8 0 1 1-.002-16l12-.001a8 8 0 1 1 .002 16zM468.001 402.351a8.003 8.003 0 0 1-5.961-13.333 39.4 39.4 0 0 0 5.622-8.199 8 8 0 0 1 14.217 7.341 55.493 55.493 0 0 1-7.911 11.523 7.984 7.984 0 0 1-5.967 2.668zM480.468 363.421a8 8 0 0 1-7.968-7.386 47.11 47.11 0 0 0-1.879-10.061 8 8 0 1 1 15.308-4.65 63.11 63.11 0 0 1 2.523 13.482 8.001 8.001 0 0 1-7.984 8.615zM461.653 327.276a7.96 7.96 0 0 1-4.827-1.625 37.61 37.61 0 0 0-8.578-4.862 8 8 0 0 1 6.022-14.824 53.601 53.601 0 0 1 12.223 6.937 8 8 0 0 1-4.84 14.374zM421.777 317.529l-12.001-.001a8 8 0 0 1-7.999-8.001 8 8 0 0 1 8-7.999h.001l12 .001a8 8 0 0 1 7.999 8.001 8 8 0 0 1-8 7.999zM379.777 317.524l-12.001-.001a8 8 0 0 1-7.999-8.001 8 8 0 0 1 8-7.999h.001l12 .001a8 8 0 0 1 7.999 8.001 8 8 0 0 1-8 7.999zM337.777 317.521c-.001 0-.001 0 0 0l-12.001-.002a8 8 0 0 1 .001-16h.001l12 .002a8 8 0 0 1-.001 16zM295.777 317.516l-12.001-.001a8 8 0 0 1-7.999-8.001 8 8 0 0 1 8-7.999h.001l12 .001a8 8 0 0 1 7.999 8.001 8 8 0 0 1-8 7.999zM253.777 317.511l-12-.001a8 8 0 0 1 0-16l12 .001a8 8 0 0 1 7.999 8.001 7.999 7.999 0 0 1-7.999 7.999zM213.285 309.641a7.968 7.968 0 0 1-4.378-1.31 52.498 52.498 0 0 1-10.65-9.254 8 8 0 1 1 12.02-10.561 36.443 36.443 0 0 0 7.401 6.432 8 8 0 0 1-4.393 14.693zM192.434 274.716a8.002 8.002 0 0 1-7.929-7.013 63.865 63.865 0 0 1-.219-13.696 7.998 7.998 0 0 1 8.698-7.234 7.998 7.998 0 0 1 7.234 8.698 47.948 47.948 0 0 0 .164 10.256 8 8 0 0 1-7.948 8.989zM203.113 235.242a8 8 0 0 1-6.207-13.041 52.573 52.573 0 0 1 10.273-9.669 8 8 0 0 1 11.159 1.863 8 8 0 0 1-1.863 11.159 36.604 36.604 0 0 0-7.146 6.729 7.982 7.982 0 0 1-6.216 2.959zM239.997 218.192a8 8 0 0 1-.206-15.998c.488-.013.979-.021 1.473-.024.139-.007.28-.011.421-.011h10.306a8 8 0 0 1 0 16h-9.908c-.621.029-1.252.012-1.871.029a5.171 5.171 0 0 1-.215.004zM293.99 218.16h-12a8 8 0 0 1 0-16h12a8 8 0 0 1 0 16z" fill="#DDB039" data-original="#000000" opacity="1"></path></g></svg>