<svg width="352" height="308" viewBox="0 0 352 308" fill="none" xmlns="http://www.w3.org/2000/svg">
<g clip-path="url(#clip0_235_74)">
<path d="M112.486 304.15C51.8746 293.229 2.18407 228.795 0.545917 157.262C-0.546184 108.664 0.54605 60.0655 0 11.467C0 3.27629 2.73022 0 10.3749 0C78.6312 3.2763 137.058 69.8944 139.789 147.98C141.427 197.67 140.881 246.815 140.335 296.505C140.335 305.788 137.605 309.065 129.414 307.426C123.953 305.788 118.493 305.242 112.486 304.15Z" fill="white"/>
<path d="M197.67 291.044C167.637 268.11 151.802 237.531 151.256 197.669C156.17 193.847 160.538 194.939 164.907 194.939C193.848 194.939 223.334 194.939 252.275 194.939C301.419 194.939 341.281 233.163 350.018 287.768C352.748 305.241 351.11 307.971 335.821 307.971C307.426 307.971 279.031 307.971 250.637 307.971C232.071 307.425 214.597 302.511 197.67 291.044Z" fill="white"/>
<path d="M240.808 57.3346C240.808 73.17 241.354 87.9134 238.624 102.657C230.979 141.972 199.308 175.281 164.907 180.196C152.894 181.834 150.164 180.196 150.71 165.998C152.348 140.88 149.072 115.762 151.802 90.6437C156.717 43.1373 187.295 7.09792 228.795 1.09137C238.624 -0.546781 241.354 3.27555 240.808 13.1045C240.262 27.3018 240.808 41.4991 240.808 57.3346Z" fill="white"/>
</g>
<defs>
<clipPath id="clip0_235_74">
<rect width="352" height="308" fill="white"/>
</clipPath>
</defs>
</svg>
