<svg width="78" height="42" viewBox="0 0 78 42" fill="none" xmlns="http://www.w3.org/2000/svg">
<path d="M76.4323 4.48692C76.2507 1.83877 73.5955 0.0872936 71.0836 0.956054L56.1866 6.10581C54.0799 6.83502 52.962 9.13078 53.6922 11.2346C54.4223 13.3385 56.7211 14.455 58.8278 13.7258L62.0804 12.6023L47.2289 32.3326L28.6566 8.59347C27.5701 7.20485 25.9456 6.45471 24.1778 6.45471C22.417 6.48263 20.8064 7.30952 19.7653 8.72954L1.52142 33.5712C0.204307 35.368 0.592102 37.8906 2.38784 39.2059C4.18707 40.5213 6.71299 40.134 8.03009 38.3407L24.3245 16.1541L42.8758 39.8619C43.9414 41.2226 45.5415 42.0006 47.2708 42.0006H47.3267C49.0491 42.0006 50.6701 41.1912 51.7043 39.82L69.183 16.5972L69.452 20.4875C69.6057 22.71 71.5342 24.3847 73.7562 24.2312C75.9817 24.0776 77.6586 22.1517 77.5049 19.9327L76.4358 4.4939L76.4323 4.48692Z" fill="white"/>
</svg>
