<svg xmlns="http://www.w3.org/2000/svg" version="1.1" xmlns:xlink="http://www.w3.org/1999/xlink" xmlns:svgjs="http://svgjs.com/svgjs" width="512" height="512" x="0" y="0" viewBox="0 0 64 64" style="enable-background:new 0 0 512 512" xml:space="preserve" class=""><g><path d="M15 5h6v2h-6zM18 53c-1.654 0-3 1.346-3 3s1.346 3 3 3 3-1.346 3-3-1.346-3-3-3zm0 4a1.001 1.001 0 0 1 0-2 1.001 1.001 0 0 1 0 2zM15.121 18.707C14.021 17.606 12.557 17 11 17s-3.021.606-4.121 1.707l-.172.172A5.868 5.868 0 0 0 5 23c0 1.519.466 2.975 1.349 4.209l3.837 5.372a1 1 0 0 0 1.627 0l3.837-5.372A7.186 7.186 0 0 0 17 23a5.868 5.868 0 0 0-1.707-4.121zm-1.098 7.34L11 30.279l-3.024-4.232A5.21 5.21 0 0 1 7 23c0-1.008.409-1.994 1.121-2.707l.172-.172C9.016 19.398 9.978 19 11 19s1.984.398 2.707 1.121l.172.172A3.857 3.857 0 0 1 15 23c0 1.1-.337 2.152-.977 3.047zM61.293 46.879l-.172-.172C60.021 45.606 58.557 45 57 45s-3.021.606-4.121 1.707l-.172.172A5.868 5.868 0 0 0 51 51c0 1.519.466 2.975 1.349 4.209l3.837 5.372a1 1 0 0 0 1.627 0l3.837-5.372A7.186 7.186 0 0 0 63 51a5.868 5.868 0 0 0-1.707-4.121zm-1.27 7.168L57 58.279l-3.024-4.232A5.21 5.21 0 0 1 53 51c0-1.008.409-1.994 1.121-2.707l.172-.172C55.016 47.398 55.978 47 57 47s1.984.398 2.707 1.121l.172.172A3.857 3.857 0 0 1 61 51c0 1.1-.337 2.152-.977 3.047zM10 35h2v2h-2zM10 39h2v2h-2zM10 43h2v2h-2zM14 43h2v2h-2zM18 43h2v2h-2zM22 43h2v2h-2zM26 43h2v2h-2zM30 43h2v2h-2zM36 43h2v2h-2zM40 43h2v2h-2zM40 47h2v2h-2zM40 51h2v2h-2zM40 55h2v2h-2zM40 59h2v2h-2zM44 59h2v2h-2zM48 59h2v2h-2zM52 59h2v2h-2z" fill="#FFFFFF" data-original="#000000" opacity="1" class=""></path><path d="M60 17c0-5.514-4.486-10-10-10-4.829 0-8.869 3.441-9.798 8H35V7c0-3.309-2.691-6-6-6H7C3.691 1 1 3.691 1 7v50c0 3.309 2.691 6 6 6h22c3.309 0 6-2.691 6-6V39h11a1 1 0 0 0 1-1V26.539A9.986 9.986 0 0 0 50 27c5.514 0 10-4.486 10-10zm-28 0h4v6.586l-1.293-1.293a.999.999 0 0 0-1.414 0L32 23.586zM7 3h22c2.206 0 4 1.794 4 4v2H3V7c0-2.206 1.794-4 4-4zm22 58H7c-2.206 0-4-1.794-4-4v-6h30v6c0 2.206-1.794 4-4 4zm4-12H3V11h30v4H22a1 1 0 0 0-1 1v22a1 1 0 0 0 1 1h11zM23 37v-2h22v2zm22-4H23V17h7v9a1 1 0 0 0 1.707.707L34 24.414l2.293 2.293A1 1 0 0 0 38 26v-9h2c0 3.691 2.016 6.915 5 8.647zm5-8c-4.411 0-8-3.589-8-8s3.589-8 8-8 8 3.589 8 8-3.589 8-8 8z" fill="#FFFFFF" data-original="#000000" opacity="1" class=""></path><path d="m48 18.586-1.293-1.293-1.414 1.414 2 2a.997.997 0 0 0 1.414 0l6-6-1.414-1.414z" fill="#FFFFFF" data-original="#000000" opacity="1" class=""></path></g></svg>